<svg class="img-fluid" id="outputsvg" xmlns="http://www.w3.org/2000/svg" style="transform: matrix(0.507, 0, 0, 0.507, 0, 0); transform-origin: 50% 50%; cursor: move; max-height: 389.56px; transition: transform 200ms ease-in-out 0s;" width="1416" height="785" viewBox="0 0 14160 7850"><g id="l3O1eaaOplJ2o0voEMaZflg" fill="rgb(115,57,56)" style="transform: none;"><g style="transform: none;"><path id="p11ws7hsL7" d="M9937 7637 c-4 -10 -7 -33 -6 -50 0 -27 2 -29 9 -12 l9 20 0 -20 c1 -18 3 -17 14 5 l13 25 1273 3 c1266 2 1273 2 1278 -18 10 -37 33 -23 33 20 l0 40 -1290 0 c-1025 0 -1290 -3 -1290 -12 0 -9 -4 -8 -10 2 -8 12 -10 10 -11 -10 l-1 -25 -7 25 c-6 22 -8 23 -14 7z"></path><path id="p18sNuHgfQ" d="M9044 6595 c0 -60 1 -84 3 -52 2 32 2 81 0 110 -2 29 -3 3 -3 -58z"></path><path id="pKezcPkHZ" d="M8752 6280 c-2 -28 0 -30 33 -30 24 0 35 5 35 15 0 8 -6 15 -14 15 -7 0 -19 7 -26 15 -18 22 -25 18 -28 -15z"></path><path id="p14TvIL9C4" d="M6270 5767 c0 -8 9 -17 20 -20 10 -3 19 -2 18 2 -2 19 3 24 12 11 6 -9 10 -10 10 -3 0 17 -17 25 -25 13 -5 -8 -11 -7 -21 1 -11 9 -14 8 -14 -4z"></path><path id="p580u57Sp" d="M9927 5597 c-11 -30 -8 -54 8 -61 16 -6 18 11 6 54 -6 22 -8 23 -14 7z"></path><path id="pPofkaK5Y" d="M9956 5576 c2 -16 4 -34 4 -40 0 -6 5 -4 11 4 8 11 12 12 16 3 4 -10 271 -13 1289 -13 l1284 0 0 35 c0 26 -4 35 -16 35 -11 0 -15 -6 -12 -17 5 -17 -61 -18 -1283 -15 -1215 2 -1288 3 -1292 20 -2 9 -3 4 -1 -12z"></path><path id="pvxK3o79q" d="M6530 5423 c-38 -6 -80 -24 -80 -35 0 -5 5 -6 10 -3 6 3 10 1 10 -5 0 -6 12 -9 28 -6 15 2 34 5 43 5 11 1 17 10 17 26 0 14 -1 24 -2 24 0 -1 -12 -4 -26 -6z"></path><path id="pkw7eXEnl" d="M6588 5413 c12 -2 22 -9 22 -14 0 -6 -4 -7 -10 -4 -6 3 -7 -1 -4 -9 3 -9 13 -16 21 -16 8 0 11 5 7 11 -4 7 1 7 16 -1 16 -8 25 -9 33 -1 13 13 -49 42 -85 40 l-23 -2 23 -4z"></path><path id="p1HYQkj90M" d="M6830 5215 c0 -204 0 -205 22 -205 21 0 21 0 2 16 -16 13 -16 15 -1 10 15 -5 17 2 17 59 0 59 -11 84 -23 53 -3 -7 -5 19 -5 57 0 39 2 62 5 52 10 -38 23 -2 23 63 0 62 2 68 19 63 12 -3 20 2 24 16 5 19 1 21 -39 21 l-44 0 0 -205z m70 188 c0 -5 -13 -8 -30 -8 -16 0 -30 3 -30 8 0 4 14 7 30 7 17 0 30 -3 30 -7z"></path><path id="pExoKsUSY" d="M7191 5398 c1 -17 2 -19 6 -5 3 11 14 17 31 16 26 0 26 -1 5 -9 -22 -9 -32 -21 -15 -19 4 1 16 1 27 0 15 -1 16 -4 7 -13 -16 -16 -16 -49 1 -42 9 3 13 -6 14 -28 2 -29 1 -30 -7 -10 -5 12 -11 22 -14 22 -2 0 -5 -58 -5 -130 -2 -123 -1 -130 18 -130 26 0 51 10 51 21 0 5 -7 9 -15 9 -11 0 -15 12 -15 45 0 35 4 45 16 45 13 0 15 7 11 30 -5 23 -3 30 9 30 8 0 17 -7 20 -15 6 -16 31 -19 58 -9 9 3 13 10 10 15 -3 5 0 9 5 9 6 0 11 -9 11 -20 0 -12 -5 -17 -13 -14 -8 3 -14 -2 -14 -11 0 -8 9 -15 19 -15 14 0 18 8 18 35 l0 35 -75 0 c-53 0 -75 -4 -75 -12 0 -9 -4 -8 -10 2 -5 8 -10 20 -10 25 0 6 5 3 10 -5 7 -11 10 2 10 43 0 36 -4 56 -10 52 -5 -3 -10 -1 -10 5 0 6 10 8 25 4 19 -5 25 -2 25 10 0 10 -6 13 -17 10 -14 -5 -15 -4 -4 4 8 6 20 8 28 5 7 -3 21 -2 31 2 16 7 15 8 -3 15 -15 6 -7 9 28 9 28 1 46 -3 42 -9 -3 -5 -13 -6 -23 -3 -16 6 -16 6 0 -10 19 -19 33 -23 22 -6 -4 7 -1 10 6 7 24 -8 22 -26 -2 -31 -20 -4 -20 -4 5 -6 25 -1 27 2 27 34 l0 35 -130 0 c-128 0 -130 0 -129 -22z"></path><path id="pV41s3lVo" d="M7520 5215 c0 -198 1 -205 20 -205 25 0 26 25 3 40 -17 11 -17 11 0 6 12 -4 17 0 17 14 0 10 -5 22 -12 26 -8 5 -9 2 -5 -9 3 -10 2 -17 -3 -17 -6 0 -10 37 -9 88 0 55 3 80 9 67 12 -30 18 -4 22 92 3 76 1 83 -17 86 -14 3 -12 5 8 6 18 1 27 -4 27 -14 0 -8 5 -15 10 -15 6 0 10 9 10 20 0 17 -7 20 -40 20 l-40 0 0 -205z"></path><path id="ptD9gnb8C" d="M7704 5307 c-34 -62 -71 -132 -81 -157 l-20 -46 29 -2 c15 -1 28 1 27 5 -1 5 0 22 1 38 2 27 3 28 8 7 11 -38 25 -28 64 47 31 58 36 74 25 85 -6 8 -15 12 -19 10 -14 -9 -14 22 0 44 11 18 17 20 29 11 11 -10 13 -6 9 23 -4 33 -3 34 32 35 24 0 28 -1 12 -4 -43 -8 -43 -21 -1 -21 34 -1 41 3 41 19 0 16 -7 19 -47 19 l-48 -1 -61 -112z m32 -82 c-3 -9 -11 -13 -16 -10 -8 5 -7 11 1 21 14 18 24 11 15 -11z m-33 -61 c-9 -18 -18 -32 -21 -30 -2 2 2 14 8 26 6 12 9 28 6 35 -3 9 0 12 9 9 12 -5 11 -11 -2 -40z"></path><path id="p14OivMtsQ" d="M9937 5386 c-4 -10 -7 -32 -6 -49 1 -31 1 -31 10 7 10 43 7 72 -4 42z"></path><path id="p8DdgaY6d" d="M9955 5362 c-4 -24 -4 -46 -1 -49 3 -4 6 3 6 15 l0 22 1281 0 c1272 0 1281 0 1286 -20 8 -28 33 -25 33 4 0 38 -10 56 -33 56 -20 0 -20 0 -1 -14 10 -8 16 -18 11 -22 -4 -4 -7 -2 -7 4 0 7 -11 12 -25 12 -14 0 -25 5 -25 10 0 7 -408 10 -1255 8 -830 -2 -1256 0 -1259 7 -1 6 -6 -9 -11 -33z m1665 8 c-448 -3 -990 -3 -1205 0 -214 3 152 5 815 5 1100 0 1134 0 390 -5z"></path><path id="p17ErKka9l" d="M6670 5361 c-13 -25 -13 -31 1 -31 5 0 7 5 3 12 -4 7 -3 8 4 4 14 -9 4 -36 -14 -36 -10 0 -12 -9 -7 -32 7 -41 8 -42 29 -34 11 4 15 15 12 36 -4 24 -1 29 19 32 l23 3 -22 32 c-27 38 -34 40 -48 14z"></path><path id="pPNFkkJx" d="M6417 5338 c2 -5 -3 -8 -12 -8 -8 0 -20 -12 -25 -26 -15 -39 -10 -53 6 -16 17 38 28 43 13 6 -11 -30 -3 -46 11 -24 7 11 10 3 10 -26 0 -23 3 -57 7 -75 l6 -34 -22 25 -22 25 7 -24 c4 -16 3 -21 -5 -17 -6 4 -11 24 -12 44 0 20 -3 31 -6 24 -13 -33 9 -104 44 -143 48 -53 72 -66 70 -39 -1 14 -6 19 -17 15 -12 -5 -12 -4 -3 6 10 10 9 16 -4 31 -16 17 -9 24 20 19 4 -1 1 12 -8 28 -14 29 -27 163 -14 155 8 -4 19 21 18 39 0 7 -4 3 -9 -8 -7 -19 -8 -19 -15 -1 -5 11 -3 21 4 26 8 4 0 7 -17 6 -17 -1 -28 -4 -25 -8z m13 -259 c0 -6 7 -9 15 -6 8 4 17 2 20 -3 10 -16 -32 -11 -45 5 -9 10 -9 15 -1 15 6 0 11 -5 11 -11z"></path><path id="p1HtW4tWiS" d="M7787 5263 c-4 -3 -7 -62 -7 -130 0 -115 1 -123 19 -123 18 0 20 8 19 130 -1 94 -4 130 -13 130 -6 0 -15 -3 -18 -7z m10 -130 c-2 -16 -4 -5 -4 22 0 28 2 40 4 28 2 -13 2 -35 0 -50z"></path><path id="pXNADagGJ" d="M7000 5252 c0 -4 5 -13 10 -20 6 -6 7 -10 4 -7 -4 3 -14 -1 -23 -8 -14 -10 -14 -10 -3 4 11 14 9 17 -10 23 -15 4 -27 0 -35 -11 -12 -16 -13 -16 -13 1 0 9 -4 15 -9 11 -6 -3 -9 -14 -8 -24 1 -19 35 -25 112 -20 17 1 40 2 53 3 31 2 28 13 -10 36 -34 20 -68 26 -68 12z"></path><path id="ptZJJxLfc" d="M6667 5183 c-4 -3 -7 -14 -7 -24 0 -10 -11 -31 -25 -47 -14 -17 -25 -33 -25 -36 0 -3 16 -6 35 -6 19 0 35 -5 35 -11 0 -5 -4 -8 -8 -5 -4 2 -9 -5 -9 -16 -2 -18 2 -17 33 13 l35 34 -26 3 c-20 3 -25 7 -20 20 15 35 16 82 2 82 -8 0 -17 -3 -20 -7z"></path><path id="p1EQoITfqd" d="M6520 5064 c0 -29 65 -43 67 -14 1 13 -7 19 -33 22 -22 3 -34 0 -34 -8z"></path><path id="p7UCNfZVC" d="M6955 5071 c-58 -9 -59 -36 -1 -35 33 0 43 -3 39 -13 -13 -34 87 0 107 36 9 17 7 20 -20 19 -17 -1 -35 -7 -41 -15 -15 -17 -29 -17 -29 2 0 8 -3 14 -7 13 -5 0 -26 -4 -48 -7z"></path><path id="pt3G9Er4Z" d="M7400 5045 c0 -28 4 -35 20 -35 16 0 20 7 20 35 0 28 -4 35 -20 35 -16 0 -20 -7 -20 -35z"></path><path id="pWwq8hHqo" d="M12527 3340 c-5 -20 -14 -20 -1285 -20 -1211 0 -1281 1 -1285 18 -4 16 -5 16 -6 -1 0 -10 6 -20 14 -23 8 -4 15 -12 15 -20 0 -12 193 -14 1283 -14 705 0 1276 4 1269 9 -11 7 -11 9 2 14 8 3 16 1 19 -6 2 -6 4 5 5 26 2 40 -21 53 -31 17z"></path><path id="pHfi4kqrB" d="M9931 3328 c-1 -15 4 -30 9 -33 12 -7 12 12 0 40 -8 18 -9 17 -9 -7z"></path><path id="psNHK3W77" d="M1371 2258 c1 -30 2 -31 8 -8 l7 25 5679 0 5680 0 -5677 -2 -5678 -3 -1 -918 c-1 -504 -5 -906 -9 -892 -8 24 -8 23 -9 -7 -1 -29 2 -33 23 -33 30 0 43 17 19 23 -10 3 2504 5 5587 5 3083 0 5596 -3 5585 -8 -35 -14 4 -21 96 -18 l84 3 3 933 2 932 -5700 0 -5700 0 1 -32z m11389 -913 c0 -498 -3 -905 -7 -905 -5 0 -7 407 -5 905 1 498 4 905 7 905 3 0 5 -407 5 -905z m-9780 475 c123 -47 210 -146 245 -275 10 -36 16 -67 14 -69 -4 -4 -79 -9 -111 -7 -11 1 -21 15 -29 43 -17 65 -44 111 -87 150 -52 47 -101 63 -198 63 -72 0 -86 -3 -130 -30 -94 -58 -142 -162 -151 -326 -8 -149 25 -255 104 -331 49 -47 99 -68 183 -75 124 -10 221 42 267 144 l23 53 61 0 61 0 -7 -37 c-12 -65 -54 -141 -101 -182 -86 -76 -184 -106 -323 -99 -71 3 -99 10 -154 35 -172 81 -257 233 -257 458 0 266 124 455 330 502 75 17 192 10 260 -17z m936 19 c185 -34 311 -175 351 -393 13 -73 14 -104 5 -170 -27 -205 -127 -347 -287 -408 -79 -30 -251 -33 -334 -5 -94 32 -165 85 -218 165 -45 69 -71 145 -85 246 -20 162 39 355 141 454 102 100 263 141 427 111z m4749 -20 c90 -30 164 -99 184 -172 17 -59 10 -170 -13 -214 -43 -83 -102 -114 -318 -164 -184 -43 -219 -56 -244 -94 -24 -36 -14 -117 17 -152 81 -87 278 -89 368 -3 26 26 51 79 51 110 0 19 5 21 63 18 l62 -3 -3 -35 c-8 -110 -75 -200 -178 -241 -50 -19 -78 -23 -179 -24 -109 0 -125 2 -175 26 -100 47 -156 125 -167 232 -11 107 37 191 134 233 29 13 117 39 197 58 226 55 266 82 266 178 0 93 -74 148 -211 156 -104 6 -171 -11 -222 -57 -44 -40 -67 -84 -67 -131 l0 -30 -66 0 -67 0 7 57 c22 191 163 289 401 279 59 -2 114 -12 160 -27z m1910 0 c140 -52 221 -145 271 -314 22 -74 24 -227 5 -305 -35 -139 -126 -262 -234 -313 -109 -52 -268 -61 -382 -21 -139 48 -248 175 -285 333 -16 67 -16 220 -1 286 18 75 77 187 125 238 47 49 145 102 216 117 73 15 217 5 285 -21z m-6005 -214 l0 -215 235 0 235 0 0 -60 0 -60 -235 0 -235 0 0 -140 0 -140 265 0 265 0 0 -65 0 -65 -330 0 -330 0 0 480 0 480 65 0 65 0 0 -215z m810 0 l0 -215 235 0 235 0 0 -60 0 -60 -235 0 -235 0 0 -140 0 -140 263 -2 262 -3 3 -62 3 -63 -331 0 -330 0 0 480 0 480 65 0 65 0 0 -215z m1388 158 l-3 -58 -287 -3 -288 -2 0 -155 0 -155 263 -2 262 -3 0 -55 0 -55 -262 -3 -263 -2 0 -140 0 -140 283 -2 282 -3 0 -60 0 -60 -347 -3 -348 -2 0 480 0 480 355 0 356 0 -3 -57z m832 -3 l0 -60 -285 0 -285 0 0 -155 0 -155 260 0 260 0 0 -60 0 -60 -260 0 -260 0 0 -140 0 -140 279 0 280 0 3 -22 c2 -13 1 -42 -1 -66 l-3 -42 -347 2 -346 3 -3 478 -2 477 355 0 355 0 0 -60z m1560 -160 l0 -220 245 0 245 0 0 220 0 220 70 0 70 0 -3 -477 -2 -478 -65 0 -65 0 -3 198 -2 197 -245 0 -245 0 -2 -197 -3 -198 -65 0 -65 0 -3 478 -2 477 70 0 70 0 0 -220z m2000 20 l0 -200 173 0 c207 0 257 -11 323 -72 74 -68 105 -201 72 -310 -16 -53 -82 -126 -137 -151 -42 -20 -67 -22 -303 -25 l-258 -3 0 480 0 481 65 0 65 0 0 -200z m-9053 -121 c74 -36 114 -121 93 -199 -40 -148 -231 -179 -317 -51 -60 89 -26 208 71 252 54 24 100 24 153 -2z m10060 10 c34 -13 80 -55 99 -91 20 -39 17 -112 -6 -158 -28 -56 -72 -83 -141 -88 -49 -4 -65 0 -103 22 -104 61 -115 208 -22 282 54 43 116 55 173 33z"></path><path id="p1Asm2S2fZ" d="M3717 1716 c-133 -37 -218 -160 -234 -338 -11 -127 37 -271 113 -338 64 -56 118 -75 214 -75 73 0 93 4 142 28 111 54 173 160 184 317 10 122 -27 245 -97 324 -67 76 -212 113 -322 82z"></path><path id="p1avGFwnT" d="M10310 1717 c-129 -36 -206 -137 -232 -301 -20 -131 15 -272 90 -357 17 -19 55 -48 84 -64 48 -27 61 -30 148 -30 83 1 101 4 146 27 52 28 112 86 138 135 25 49 46 148 46 215 0 158 -72 298 -182 354 -59 30 -172 40 -238 21z"></path><path id="pHrtHPugn" d="M11160 1146 l0 -166 153 0 c178 0 214 8 256 56 27 31 31 42 31 95 0 79 -20 120 -73 150 -38 21 -56 24 -204 27 l-163 4 0 -166z"></path></g></g><g id="lZe3epwgkfAK2s4BPf0xbp" fill="rgb(145,74,74)" style="transform: none;"><g style="transform: none;"><path id="ptJRmpMNz" d="M330 5381 c0 -1965 3 -2471 13 -2477 6 -4 9 -4 5 1 -14 15 25 34 45 23 24 -12 26 -9 20 25 -4 18 -12 27 -24 27 -11 0 -19 3 -19 8 0 6 579 5 660 -2 19 -1 -108 -3 -282 -4 -175 -1 -318 -6 -318 -10 0 -4 5 -13 12 -20 9 -9 9 -12 0 -12 -7 0 -12 -3 -12 -8 0 -4 144 -7 319 -7 176 0 317 2 314 5 -2 3 -36 6 -74 6 -89 2 -91 2 -84 14 3 6 42 10 86 10 73 0 80 -2 89 -22 5 -14 9 347 11 922 1 520 3 937 6 927 2 -9 9 -15 14 -12 5 4 9 612 9 1541 l0 1534 -395 0 -395 0 0 -2469z"></path><path id="pZBjN9j5M" d="M1410 5220 l0 -2630 5703 2 5702 3 3 2628 2 2627 -109 0 -110 0 -3 -27 c-2 -14 -10 -28 -18 -30 -13 -4 -13 -3 0 6 10 7 11 11 3 11 -7 0 -13 9 -13 20 0 29 -17 24 -35 -10 -15 -30 -47 -40 -60 -20 -5 8 -11 7 -21 -1 -8 -6 -18 -9 -21 -5 -4 4 -1 11 7 16 9 6 10 10 3 10 -6 0 -15 -4 -18 -10 -10 -16 -2377 -14 -2393 2 -9 9 -12 0 -14 -42 -1 -43 -2 -47 -5 -17 -2 20 -9 37 -15 37 -6 0 -8 -26 -5 -72 4 -50 3 -60 -2 -33 l-8 40 -3 -50 c-3 -40 -5 -31 -10 40 l-6 90 -2 -92 c-2 -83 0 -93 16 -93 9 0 587 0 1284 0 l1268 0 2 -1030 3 -1030 -1288 0 -1288 0 3 -97 3 -98 415 0 415 0 -385 5 c-212 3 157 5 820 5 1097 0 1133 0 395 -5 l-810 -5 860 -1 c473 -1 848 1 833 3 -16 2 -28 11 -28 19 0 18 10 17 35 -4 20 -17 20 -28 17 -1044 l-2 -1028 -1275 0 -1275 0 0 -27 c0 -22 2 -25 10 -13 8 13 10 13 10 -2 0 -9 3 -24 7 -34 4 -12 3 -15 -5 -10 -8 5 -12 -5 -13 -31 -1 -34 -3 -32 -14 22 l-13 60 -1 -107 -1 -108 -452 -2 c-395 -3 -453 -5 -453 -18 0 -13 54 -16 405 -20 l405 -5 -407 -3 c-321 -2 -408 1 -408 11 0 6 -1 797 -2 1757 -1 960 -4 1702 -5 1651 -2 -52 -9 -101 -14 -108 -6 -6 -8 -17 -4 -23 4 -6 3 -9 -2 -8 -4 1 -26 -4 -47 -11 -53 -18 -186 -9 -198 13 -5 9 -12 16 -16 16 -13 0 -13 -61 -1 -76 9 -11 9 -14 0 -14 -9 0 -11 -371 -9 -1495 2 -822 -1 -1495 -5 -1495 -5 0 -6 -4 -3 -9 3 -4 -8 -20 -25 -35 -28 -25 -32 -26 -48 -12 -10 9 -29 16 -43 16 -21 0 -25 -4 -21 -20 4 -14 0 -20 -11 -20 -9 0 -16 7 -16 15 0 13 -177 15 -1530 15 -1448 0 -1530 -1 -1531 -18 0 -10 -3 -12 -6 -4 -2 6 -9 10 -14 6 -5 -3 -9 1 -9 9 0 8 -10 21 -22 29 -20 14 -21 17 -8 62 13 49 7 77 -8 35 -6 -15 -7 14 -4 79 3 72 1 102 -7 102 -7 0 -11 27 -11 80 0 44 4 80 9 80 6 0 10 783 11 2105 l0 2105 -125 0 -125 0 0 -2343 c0 -2077 -2 -2344 -15 -2344 -13 0 -15 267 -15 2344 0 1555 -3 2343 -10 2343 -7 0 -10 -805 -10 -2394 0 -2271 -1 -2394 -17 -2401 -15 -5 -16 -4 -5 6 19 20 15 29 -12 29 -30 0 -43 -17 -19 -23 10 -3 -179 -5 -419 -6 l-438 -1 -1 123 c-1 112 -2 119 -14 92 -8 -16 -14 -23 -15 -15 0 9 -10 17 -22 18 -31 3 -70 -7 -65 -16 3 -4 1 -16 -4 -27 -6 -17 -8 -17 -8 -2 -1 16 -66 17 -1203 19 l-1203 3 1205 5 c815 3 1022 6 640 8 -311 2 -852 3 -1202 2 -540 -1 -638 1 -638 13 0 7 -11 19 -25 25 -25 12 -25 12 -25 146 0 73 -3 148 -7 166 -4 24 -3 31 6 26 9 -6 10 185 6 852 -7 828 -6 860 12 871 16 9 16 12 3 21 -13 8 -13 10 2 10 9 0 20 -4 23 -10 10 -16 816 -14 813 2 -2 9 177 12 790 14 435 1 797 2 802 3 6 0 10 19 10 41 l0 40 -727 3 -728 2 728 3 c638 2 727 4 727 17 0 13 -141 15 -1205 15 -797 0 -1205 3 -1205 10 0 6 -9 10 -20 10 -16 0 -20 -7 -20 -35 0 -28 -4 -35 -20 -35 -18 0 -20 7 -20 75 0 48 4 75 11 75 6 0 8 -7 4 -17 -4 -13 -3 -15 4 -7 8 7 13 317 17 985 3 535 5 993 4 1017 0 35 3 42 20 42 11 0 20 7 20 15 0 13 140 15 1204 15 l1204 0 4 60 3 60 -1175 2 c-1253 2 -1199 2 -1247 -8 -32 -6 -33 -5 -33 25 0 28 -3 31 -30 31 -25 0 -30 -4 -30 -25 0 -14 -4 -25 -10 -25 -5 0 -10 11 -10 25 0 23 -3 25 -50 25 l-50 0 0 -2583 c0 -2531 0 -2583 19 -2596 16 -12 17 -18 8 -33 -14 -21 -39 -25 -31 -4 3 8 1 17 -5 21 -8 4 -12 775 -13 2603 l-3 2597 -5 -2605 -5 -2605 -3 2603 c-2 2595 -2 2602 -22 2602 -20 0 -20 -7 -20 -2630z m200 2370 c0 -27 -4 -50 -10 -50 -5 0 -10 23 -10 50 0 28 5 50 10 50 6 0 10 -22 10 -50z m10987 10 c1 -28 -2 -40 -12 -40 -18 0 -28 17 -15 25 5 3 10 17 10 31 0 41 16 27 17 -16z m-7 -996 c0 -500 0 -922 0 -938 0 -16 -2 -27 -5 -24 -4 4 -8 1666 -5 1872 0 5 2 7 5 4 3 -3 5 -414 5 -914z m-10980 -90 c0 -629 -3 -954 -10 -954 -7 0 -10 327 -10 961 0 637 3 958 10 954 7 -4 10 -335 10 -961z m47 -106 c-2 -24 -4 -5 -4 42 0 47 2 66 4 43 2 -24 2 -62 0 -85z m7341 -170 c2 -12 -3 -18 -15 -18 -10 0 -14 -4 -8 -8 7 -5 8 -521 5 -1532 l-5 -1525 -3 1517 c-1 834 -5 1523 -8 1532 -3 9 -14 16 -23 16 -14 0 -14 2 -1 10 12 8 11 10 -7 10 -13 0 -23 -4 -23 -10 0 -15 -29 -12 -46 4 -12 13 -11 15 8 18 13 2 45 3 73 3 39 0 50 -4 53 -17z m3598 -674 c-3 -8 -11 -12 -16 -9 -12 8 -9 37 5 47 12 9 19 -17 11 -38z m-2606 -84 c0 -38 4 -70 8 -70 5 0 9 -7 9 -15 0 -8 -9 -15 -19 -15 -16 0 -18 9 -18 85 0 50 4 85 10 85 6 0 10 -30 10 -70z m-8375 -117 c-4 -26 -16 -64 -26 -83 -20 -35 -20 -35 -14 -5 4 17 9 50 12 75 4 38 16 59 32 60 2 0 0 -21 -4 -47z m10945 -68 c0 -8 -4 -15 -10 -15 -5 0 -10 7 -10 15 0 8 5 15 10 15 6 0 10 -7 10 -15z m-10950 -1015 c0 -633 -3 -960 -10 -960 -7 0 -10 327 -10 960 0 633 3 960 10 960 7 0 10 -327 10 -960z m10977 -991 c-4 -3 -5 -13 -1 -22 5 -14 2 -16 -17 -8 -14 4 -35 4 -49 0 -14 -5 -576 -8 -1255 -7 l-1230 3 1240 5 1240 5 -1245 5 -1245 5 1260 3 c693 1 1255 6 1248 10 -9 6 -7 11 7 20 16 10 18 9 13 -5 -4 -11 -2 -14 8 -11 12 4 15 152 19 974 l5 969 5 -970 c3 -533 1 -973 -3 -976z m-10930 1004 c-2 -16 -4 -5 -4 22 0 28 2 40 4 28 2 -13 2 -35 0 -50z m3763 -989 c0 -18 -26 -18 -33 0 -3 8 -3 16 0 19 9 10 33 -5 33 -19z m-1285 -125 c0 -12 -174 -14 -1212 -17 -807 -1 -1213 1 -1213 8 0 7 402 10 1194 10 826 0 1197 3 1201 11 9 14 30 6 30 -12z m8455 -9 c0 -7 -432 -10 -1275 -10 -843 0 -1275 3 -1275 10 0 7 432 10 1275 10 843 0 1275 -3 1275 -10z m-2560 -41 c0 -5 -7 -9 -15 -9 -9 0 -15 9 -15 21 0 18 2 19 15 9 8 -7 15 -16 15 -21z m-4800 -4 c0 -14 -4 -25 -10 -25 -5 0 -10 11 -10 25 0 14 5 25 10 25 6 0 10 -11 10 -25z m-1038 -75 c3 -46 1 -50 -19 -50 -19 0 -23 6 -23 30 0 17 5 30 10 30 6 0 10 9 10 20 0 43 18 17 22 -30z m5768 -25 c5 3 7 0 5 -8 -4 -8 -16 -12 -35 -9 -19 3 -27 9 -23 18 4 10 10 11 24 3 11 -5 24 -7 29 -4z m-5087 -12 c-111 -2 -295 -2 -410 0 -114 1 -23 2 202 2 226 0 319 -1 208 -2z m257 -3 c0 -5 -6 -10 -14 -10 -8 0 -18 5 -21 10 -3 6 3 10 14 10 12 0 21 -4 21 -10z m7650 -359 c0 -19 -3 -22 -9 -12 -7 11 -9 11 -14 0 -3 -8 -6 -2 -6 12 -1 16 4 26 14 26 10 0 15 -10 15 -26z"></path><path id="pbsmbAZLO" d="M4260 7835 c0 -9 -4 -14 -9 -10 -5 3 -13 0 -17 -6 -4 -8 -3 -9 4 -5 7 4 12 1 12 -8 0 -9 7 -16 15 -16 17 0 21 45 5 55 -5 3 -10 -1 -10 -10z"></path><path id="p10JxBjGO0" d="M4570 5570 l0 -2280 125 0 125 0 0 2280 0 2280 -125 0 -125 0 0 -2280z"></path><path id="phzEDCgzs" d="M8750 7586 l0 -264 23 -6 c32 -8 39 -7 32 4 -3 6 3 10 14 10 12 0 21 -6 21 -12 0 -9 3 -9 9 1 12 19 41 6 41 -17 0 -10 6 -19 14 -19 7 0 12 7 11 16 -2 9 -4 136 -4 284 l-1 267 -80 0 -80 0 0 -264z"></path><path id="p155JIeTn3" d="M8930 7582 c0 -277 3 -295 41 -285 20 5 27 23 9 23 -6 0 -10 95 -10 265 0 258 -1 265 -20 265 -20 0 -20 -7 -20 -268z"></path><path id="pKMcHENj1" d="M8984 7590 c0 -146 2 -205 3 -132 2 72 2 192 0 265 -1 72 -3 13 -3 -133z"></path><path id="p713OmHdv" d="M9025 7528 c3 -178 10 -444 13 -593 l8 -270 3 260 c2 143 5 252 8 243 8 -33 33 -20 33 17 0 38 -13 46 -29 18 -7 -13 -10 84 -11 315 0 297 -2 332 -16 332 -14 0 -15 -32 -9 -322z"></path><path id="pyROzlgZ3" d="M9380 5570 l0 -2280 125 0 125 0 0 2280 0 2280 -30 0 -30 0 -1 -2232 c-1 -1228 -5 -2246 -9 -2263 -4 -16 -8 988 -9 2233 l-1 2262 -85 0 -85 0 0 -2280z"></path><path id="phjCCxVPO" d="M13140 5412 c0 -2191 2 -2439 15 -2439 9 0 14 6 11 14 -3 8 1 16 9 19 13 5 15 296 15 2425 l0 2419 -25 0 -25 0 0 -2438z"></path><path id="pbAKxkcBX" d="M13200 5430 c0 -1518 4 -2420 9 -2420 6 0 6 -12 -1 -30 -19 -57 -22 -56 243 -55 134 1 254 -2 267 -7 12 -4 33 -3 47 2 20 8 25 16 25 45 0 19 -4 35 -10 35 -7 0 -10 815 -10 2425 l0 2425 -285 0 -285 0 0 -2420z m530 -2440 c0 -6 -88 -9 -247 -8 l-248 2 235 6 c129 3 241 7 248 8 6 1 12 -2 12 -8z"></path><path id="ptAMEqrBV" d="M13790 5425 c0 -2247 1 -2425 17 -2433 14 -8 19 -23 22 -69 1 -7 8 -13 16 -13 12 0 15 13 15 59 0 58 -14 90 -23 54 -3 -10 -5 1072 -6 2405 -1 2415 -1 2422 -21 2422 -20 0 -20 -7 -20 -2425z"></path><path id="p17Vml06lZ" d="M4137 7793 c-11 -10 -8 -113 3 -113 6 0 10 24 10 54 0 34 5 56 13 59 8 4 6 6 -4 6 -9 1 -19 -2 -22 -6z"></path><path id="pqNmHr8xh" d="M4192 7723 c-1 -54 -6 -83 -14 -86 -10 -4 -10 -6 0 -6 19 -1 23 19 19 100 l-3 74 -2 -82z"></path><path id="pGmHRh7B6" d="M4227 7793 c-11 -10 -8 -141 3 -148 6 -4 10 23 10 74 0 81 -1 87 -13 74z"></path><path id="p7pGBGaFG" d="M9933 7643 c-17 -6 -19 -1398 -3 -1408 6 -3 11 2 12 12 2 10 5 -137 8 -327 3 -197 6 89 7 670 0 558 -2 1024 -5 1036 -4 11 -13 19 -19 17z"></path><path id="pA9XRs2A7" d="M2708 7633 c23 -2 61 -2 85 0 23 2 4 4 -43 4 -47 0 -66 -2 -42 -4z"></path><path id="pNSzy8Det" d="M2933 7633 c15 -2 39 -2 55 0 15 2 2 4 -28 4 -30 0 -43 -2 -27 -4z"></path><path id="pXkpKLzuh" d="M8784 7276 c0 -18 4 -23 14 -17 8 4 37 7 65 5 50 -3 45 -1 -33 12 -30 6 -32 8 -15 14 18 8 17 9 -5 9 -21 1 -26 -4 -26 -23z"></path><path id="p14qM5v9Cm" d="M9062 6670 c0 -19 2 -27 5 -17 2 9 2 25 0 35 -3 9 -5 1 -5 -18z"></path><path id="pcGSSiwfx" d="M9062 6520 c0 -19 2 -27 5 -17 2 9 2 25 0 35 -3 9 -5 1 -5 -18z"></path><path id="p88tk4GHU" d="M6251 5791 c-12 -8 -12 -12 2 -25 18 -19 43 -21 53 -5 4 8 9 7 15 -2 5 -8 9 -9 9 -3 0 18 -13 24 -27 12 -11 -9 -15 -7 -20 10 -6 24 -11 26 -32 13z"></path><path id="pKAh7Q640" d="M6713 5793 c196 -2 518 -2 715 0 196 1 35 2 -358 2 -393 0 -554 -1 -357 -2z"></path><path id="pSi8ZbX4P" d="M7890 5788 c0 -5 6 -16 14 -24 11 -11 16 -11 19 -1 4 9 6 9 6 0 2 -22 31 -2 31 21 0 17 -2 18 -10 6 -7 -10 -12 -12 -17 -4 -9 13 -43 14 -43 2z"></path><path id="p13J9c2RoP" d="M7972 5774 c4 -33 23 -43 30 -16 3 12 -2 23 -14 31 -18 11 -19 10 -16 -15z"></path><path id="p11n6AnyLE" d="M6226 5713 c-4 -9 -4 -50 -1 -92 3 -50 2 -68 -4 -51 -6 15 -9 -130 -10 -375 -1 -220 -4 -418 -8 -440 -3 -23 -2 -37 3 -32 5 5 11 178 14 385 l5 377 3 -370 c1 -207 6 -376 12 -385 5 -9 9 175 10 493 0 467 -3 545 -24 490z"></path><path id="p1EnIminU2" d="M7990 5215 c0 -280 -3 -512 -6 -517 -7 -10 -13 -58 -8 -58 2 0 11 14 19 31 14 26 16 90 14 507 -1 503 -2 528 -12 538 -3 3 -6 -222 -7 -501z"></path><path id="p15xakUC9t" d="M9931 5585 c0 -16 4 -37 9 -45 8 -12 10 -11 9 5 -1 11 -5 31 -9 45 -8 24 -8 24 -9 -5z"></path><path id="pAhxGROVJ" d="M3033 5543 c203 -2 531 -2 730 0 199 1 34 2 -368 2 -401 0 -564 -1 -362 -2z"></path><path id="pWyDcKngF" d="M4160 5540 l35 -7 -32 -2 c-23 -1 -33 -6 -33 -17 0 -11 8 -14 33 -12 24 2 32 8 32 23 0 16 -7 20 -35 22 l-35 1 35 -8z"></path><path id="p7X6VkJDc" d="M4220 5475 c0 -43 4 -75 10 -75 6 0 10 32 10 75 0 43 -4 75 -10 75 -6 0 -10 -32 -10 -75z"></path><path id="pFtHCO1nt" d="M4163 5493 c-33 -4 -33 -5 -33 -59 0 -50 10 -68 25 -44 5 8 11 7 20 0 14 -12 39 -5 31 9 -3 4 -6 28 -7 54 -2 26 -3 46 -3 45 -1 0 -16 -3 -33 -5z"></path><path id="pNTcvJwQ1" d="M6535 5418 c-9 -6 -23 -7 -31 -4 -9 4 -14 -1 -14 -15 0 -11 -5 -17 -10 -14 -6 4 -7 11 -4 17 18 29 -56 -28 -79 -62 -21 -30 -22 -47 -2 -30 14 11 14 10 5 -15 -6 -16 -8 -36 -4 -44 12 -26 13 -71 2 -71 -6 0 -7 -7 -4 -16 4 -9 1 -23 -6 -32 -10 -12 -10 -16 0 -19 6 -3 10 -9 6 -14 -3 -5 4 -9 15 -9 12 0 21 -5 21 -11 0 -6 6 -9 13 -6 7 3 21 -1 32 -9 15 -11 21 -11 34 -1 12 9 13 9 7 0 -8 -15 -5 -16 19 -7 13 5 9 11 -17 27 -18 12 -36 20 -40 19 -4 -1 -5 5 -2 13 4 8 1 15 -5 15 -6 0 -10 3 -10 8 3 19 -2 33 -11 27 -5 -3 -10 3 -10 14 0 12 4 21 9 21 10 0 9 19 -2 37 -4 6 -2 15 4 18 5 4 8 14 5 22 -3 8 -2 12 3 9 4 -3 13 6 20 20 13 30 72 57 106 48 14 -3 39 -23 56 -43 18 -20 28 -30 25 -23 -4 6 -2 12 3 12 14 0 14 -17 0 -25 -6 -4 -9 -31 -7 -63 1 -32 -1 -63 -5 -69 -5 -9 -2 -13 9 -13 13 0 14 -3 4 -15 -7 -8 -18 -15 -24 -15 -6 0 -4 5 4 10 8 5 11 10 6 10 -4 0 -21 -11 -38 -25 -16 -14 -36 -25 -44 -25 -8 0 -14 -4 -14 -9 0 -5 -12 -12 -26 -15 -35 -9 -24 -18 26 -21 30 -2 38 1 30 10 -5 6 -7 15 -3 18 10 10 33 8 33 -3 0 -5 -8 -7 -17 -4 -17 5 -17 5 0 -6 9 -6 23 -8 30 -4 8 5 7 2 -2 -9 -7 -9 -27 -17 -44 -17 -42 0 -107 21 -100 33 3 5 0 8 -7 5 -26 -8 -21 -26 11 -37 78 -27 186 0 200 49 4 14 8 18 8 10 2 -24 39 25 51 68 21 77 6 165 -36 207 -14 14 -21 25 -17 25 4 0 -3 7 -15 16 -36 25 -62 25 -84 1 -11 -12 -17 -17 -14 -10 4 6 1 15 -6 19 -8 5 -6 9 7 14 17 6 16 7 -7 12 -14 3 -34 1 -43 -4z m-75 -63 c-8 -9 -8 -15 -2 -15 6 0 12 6 15 13 2 6 7 9 11 6 3 -3 1 -17 -7 -31 -10 -19 -17 -23 -32 -17 -11 4 -14 8 -7 8 6 1 12 6 12 12 0 7 -9 9 -21 6 -16 -4 -18 -3 -8 9 6 7 15 12 19 9 4 -3 11 5 15 18 4 14 8 17 12 9 3 -7 -1 -19 -7 -27z m179 9 c-16 -20 1 -17 24 4 11 9 17 11 13 4 -4 -7 -2 -21 6 -30 11 -15 11 -16 -3 -4 -9 7 -23 10 -31 7 -7 -3 -22 2 -33 11 -18 14 -19 15 -1 10 13 -5 17 -2 13 8 -4 10 -1 13 9 9 11 -4 12 -9 3 -19z m103 -189 c-2 -14 -9 -25 -14 -25 -6 0 -7 -8 -3 -17 5 -14 4 -15 -6 -6 -10 10 -9 15 0 27 7 8 10 19 7 25 -3 5 0 12 6 14 7 3 14 6 14 6 1 1 -1 -10 -4 -24z m-62 -114 c0 -14 -18 -23 -30 -16 -6 4 -8 11 -5 16 8 12 35 12 35 0z"></path><path id="pdJyffkxT" d="M6903 5408 c-10 -15 -55 -17 -65 -3 -11 14 -10 -4 7 -129 9 -69 11 -115 5 -126 -5 -9 -11 -45 -13 -79 -3 -56 -2 -61 17 -61 18 0 18 1 3 13 -14 10 -4 12 62 13 65 0 78 -2 69 -13 -6 -7 -22 -13 -37 -12 l-26 1 25 8 25 8 -27 1 c-16 1 -28 -4 -28 -10 0 -6 -9 -8 -21 -4 -16 5 -19 4 -14 -5 7 -11 49 -10 143 2 7 1 11 7 8 14 -3 8 -1 16 4 19 6 4 10 -1 10 -10 0 -13 4 -14 20 -5 49 26 65 120 29 179 -19 31 -21 32 -38 17 -20 -18 -31 -20 -31 -6 0 6 5 9 11 8 6 -2 14 3 17 11 2 8 0 11 -6 7 -6 -3 -12 -1 -14 5 -5 15 -108 25 -108 11 0 -5 7 -13 16 -16 9 -3 14 -13 10 -21 -8 -23 10 -26 28 -6 17 18 17 20 -1 24 -15 4 -16 5 -1 6 17 1 31 -14 34 -36 1 -7 -2 -13 -7 -13 -5 0 -9 5 -9 12 0 6 -3 8 -7 4 -5 -4 1 -14 11 -22 21 -15 41 -115 22 -108 -6 2 -24 -4 -39 -15 -23 -15 -33 -16 -53 -7 -21 10 -24 17 -24 74 0 50 3 62 16 62 11 0 14 5 10 16 -3 9 -6 20 -6 25 0 6 -4 8 -9 4 -6 -3 -9 31 -8 85 1 49 1 90 0 90 -1 0 -6 -6 -10 -12z m184 -205 c-4 -3 -2 -12 5 -20 6 -8 13 -29 14 -46 3 -31 3 -31 -12 7 -7 21 -19 45 -25 52 -9 11 -7 14 6 14 10 0 15 -3 12 -7z m-190 -105 c-2 -13 -4 -5 -4 17 -1 22 1 32 4 23 2 -10 2 -28 0 -40z"></path><path id="pEUr8wZID" d="M7413 5405 c0 -8 6 -16 14 -19 7 -3 13 -2 13 3 0 5 -6 14 -13 20 -10 8 -14 7 -14 -4z"></path><path id="pQxVxRIxX" d="M7755 5399 c-4 -13 -16 -36 -27 -51 -11 -16 -15 -28 -9 -28 6 0 15 9 21 20 11 21 30 19 30 -3 0 -7 -4 -6 -11 3 -7 12 -9 8 -7 -15 2 -21 8 -30 20 -29 12 1 17 -8 18 -40 4 -81 3 -151 -2 -171 -3 -11 -1 -26 5 -32 6 -9 6 -13 -1 -13 -6 0 -9 -7 -6 -15 4 -9 19 -15 40 -15 l34 0 0 198 0 198 -39 -1 c-21 0 -38 -2 -36 -5 2 -3 -1 -12 -7 -20 -8 -13 -9 -13 -5 1 3 9 2 22 -3 29 -6 9 -10 6 -15 -11z"></path><path id="pPqmtWJGT" d="M7192 5213 l-2 -203 120 0 120 0 0 25 c0 14 -6 25 -12 25 -9 0 -8 4 2 10 10 7 -14 10 -77 10 -85 0 -111 8 -82 26 6 3 8 16 5 28 -3 12 -1 35 4 51 8 25 9 26 7 5 -3 -25 -3 -25 70 -22 73 4 88 12 56 31 -12 7 -14 10 -4 11 10 0 11 3 2 13 -6 8 -23 12 -40 9 -22 -3 -28 -8 -24 -23 8 -30 -22 -23 -36 8 -9 19 -15 23 -20 14 -6 -10 -10 -9 -15 4 -8 23 -8 27 3 21 5 -4 4 5 -2 18 -7 13 -15 22 -18 20 -4 -2 -6 3 -5 13 2 9 11 20 22 24 10 4 13 8 7 8 -7 1 -13 4 -13 9 0 4 39 6 87 5 60 -1 80 1 63 6 -20 7 -21 9 -5 10 17 1 17 3 5 15 -18 16 -92 27 -111 15 -7 -4 -18 -4 -25 2 -7 6 -21 6 -39 -1 -23 -9 -26 -14 -20 -37 3 -15 7 -30 7 -33 1 -3 -3 -18 -8 -35 -8 -26 -10 -20 -15 45 -3 48 -6 1 -7 -127z m15 -40 c-2 -16 -4 -5 -4 22 0 28 2 40 4 28 2 -13 2 -35 0 -50z"></path><path id="pyM1fKQ4D" d="M7579 5323 c-1 -49 0 -101 1 -118 1 -16 -1 -27 -5 -23 -4 4 -6 54 -6 112 1 100 0 106 -19 106 -18 0 -20 -6 -19 -67 1 -38 4 -112 8 -166 3 -58 2 -97 -3 -97 -6 0 -1 -7 10 -15 16 -13 16 -14 2 -9 -14 5 -18 1 -18 -15 0 -18 6 -21 43 -21 31 0 38 3 27 10 -13 9 -13 10 0 10 13 0 13 1 0 10 -12 8 -10 10 9 10 20 0 21 2 11 15 -9 10 -9 15 -1 15 6 0 11 -5 11 -11 0 -5 6 -7 13 -3 6 4 4 -2 -7 -14 -10 -11 -16 -26 -14 -33 2 -7 21 18 41 55 39 71 47 92 22 60 -14 -16 -14 -14 0 14 9 19 14 39 12 46 -4 9 2 11 17 9 19 -4 26 2 39 34 15 37 7 70 -14 57 -5 -3 -9 0 -9 5 0 6 -8 11 -17 10 -10 0 -13 -3 -6 -5 7 -3 0 -16 -18 -35 -26 -26 -30 -34 -29 -54 1 -3 -6 -13 -15 -21 -13 -13 -16 -24 -15 -49 1 -3 -6 -13 -15 -22 -9 -8 -14 -21 -12 -28 3 -6 2 -17 -3 -24 -4 -7 -5 67 -2 163 3 127 1 176 -7 176 -7 0 -11 -30 -12 -87z m161 -93 c-6 -11 -15 -18 -21 -14 -6 4 -6 11 2 20 17 21 31 17 19 -6z"></path><path id="pxA2qZglx" d="M9931 5391 c-10 -7 -12 -18 -5 -47 7 -36 8 -37 12 -11 2 15 7 25 11 22 5 -2 6 7 3 20 -2 14 -5 25 -6 25 0 0 -7 -4 -15 -9z"></path><path id="pIRDP9V6b" d="M9951 4775 c-2 -313 -5 -562 -8 -552 -2 9 -9 15 -14 12 -12 -8 -12 -612 0 -620 5 -3 12 3 14 12 3 10 5 -56 5 -147 0 -91 -2 -157 -5 -147 -6 24 -23 11 -23 -19 0 -37 28 -30 35 9 3 17 4 480 3 1027 -2 780 -4 872 -7 425z"></path><path id="p1FGVXo7rz" d="M6370 5265 c0 -14 2 -25 4 -25 2 0 6 11 8 25 3 14 1 25 -3 25 -5 0 -9 -11 -9 -25z"></path><path id="p1GJILJ6X1" d="M6219 4666 c27 -29 36 -33 28 -12 -3 8 -2 17 4 20 5 2 4 3 -3 2 -7 -2 -22 1 -33 7 -17 8 -16 6 4 -17z"></path><path id="p15jInk9Ew" d="M6276 4667 c3 -9 10 -17 15 -17 4 0 6 -7 3 -15 -4 -10 2 -14 23 -14 15 0 199 -5 408 -10 209 -5 535 -9 725 -8 l345 2 -405 5 -405 5 425 2 c244 1 416 -2 405 -7 -14 -6 0 -8 45 -8 36 1 52 3 35 5 -39 6 -55 21 -35 33 12 7 8 10 -13 10 -16 0 -26 -3 -23 -8 2 -4 -325 -7 -727 -6 -403 1 -732 2 -732 4 0 1 -13 4 -30 6 -16 3 -38 13 -48 22 -17 15 -17 15 -11 -1z"></path><path id="p1CwMio6dS" d="M7905 4655 c-20 -10 -24 -14 -12 -15 10 0 16 -4 13 -8 -2 -4 6 -9 19 -10 28 -2 38 9 29 32 -7 19 -9 19 -49 1z"></path><path id="pnErZ9BvF" d="M5450 3525 c0 -19 5 -35 10 -35 6 0 10 16 10 35 0 19 -4 35 -10 35 -5 0 -10 -16 -10 -35z"></path><path id="pxLtY6XFr" d="M4830 3305 c0 -9 -9 -19 -20 -22 -26 -7 -15 -23 16 -23 19 0 24 5 24 24 0 14 -4 28 -10 31 -5 3 -10 -1 -10 -10z"></path><path id="p1GYDPanyh" d="M9357 3314 c-4 -4 -7 -18 -7 -31 0 -18 6 -23 24 -23 14 0 28 5 31 10 3 6 -1 10 -10 10 -8 0 -19 9 -23 20 -4 12 -11 18 -15 14z"></path><path id="pzxn1D8X0" d="M9640 3305 c0 -9 -9 -19 -20 -22 -26 -7 -15 -23 16 -23 19 0 24 5 24 24 0 14 -4 28 -10 31 -5 3 -10 -1 -10 -10z"></path><path id="pl8Ad0QEG" d="M1387 2614 c-4 -4 -7 -18 -7 -31 0 -18 6 -23 24 -23 14 0 28 5 31 10 3 6 -1 10 -10 10 -8 0 -19 9 -23 20 -4 12 -11 18 -15 14z"></path><path id="pKBbhD29d" d="M1360 2278 c0 -9 3 -25 7 -35 6 -16 8 -15 13 7 l6 25 5679 0 5680 0 -5680 -5 -5680 -5 5678 -3 5677 -2 2 -902 3 -903 5 900 5 900 3 -905 2 -906 -77 1 c-92 1 -113 -3 -113 -21 0 -11 22 -14 100 -14 l100 0 0 893 c0 490 3 915 6 942 l6 50 -5711 0 c-5326 0 -5711 -1 -5711 -17z"></path><path id="pd2F8lro6" d="M4437 1823 c-3 -5 18 -7 46 -5 86 5 96 9 25 11 -37 0 -69 -2 -71 -6z"></path><path id="p54yvYaV9" d="M5265 1824 c46 -7 123 -8 118 -1 -2 4 -34 6 -71 6 -37 -1 -58 -3 -47 -5z"></path><path id="pPHxklevt" d="M6238 1823 c101 -2 263 -2 360 0 97 1 15 2 -183 2 -198 0 -278 -1 -177 -2z"></path><path id="pcbDPsu1c" d="M7247 1823 l352 -3 4 -63 4 -62 -1 65 -1 65 -355 0 -355 0 352 -2z"></path><path id="p1GL5jbf6c" d="M9053 1823 c20 -2 54 -2 75 0 20 2 3 4 -38 4 -41 0 -58 -2 -37 -4z"></path><path id="pweZ0LdRd" d="M9677 1823 c18 -2 50 -2 70 0 21 2 7 4 -32 4 -38 0 -55 -2 -38 -4z"></path><path id="pQ9DyWVvy" d="M11025 1818 c-3 -7 -4 -220 -3 -473 l3 -460 3 467 2 467 68 4 67 3 -68 2 c-46 1 -69 -2 -72 -10z"></path><path id="pfvSOaZRc" d="M4435 1345 c0 -253 1 -355 2 -227 2 128 2 335 0 460 -1 125 -2 20 -2 -233z"></path><path id="pYoSaq6vy" d="M5245 1320 c0 -223 1 -314 2 -203 2 112 2 294 0 405 -1 112 -2 21 -2 -202z"></path><path id="psbPzvF0f" d="M6194 1545 c0 -88 2 -123 3 -77 2 46 2 118 0 160 -1 42 -3 5 -3 -83z"></path><path id="pKkAW3Hla" d="M3195 1470 l-50 -7 47 -1 c26 -1 50 3 53 8 3 6 5 9 3 8 -2 0 -25 -4 -53 -8z"></path><path id="pg19XiTmB" d="M3483 1340 c0 -41 2 -58 4 -37 2 20 2 54 0 75 -2 20 -4 3 -4 -38z"></path><path id="p1Ho0NqQzV" d="M2383 1325 c0 -33 2 -45 4 -27 2 18 2 45 0 60 -2 15 -4 0 -4 -33z"></path><path id="puKDIQDTY" d="M9932 1290 c0 -19 2 -27 5 -17 2 9 2 25 0 35 -3 9 -5 1 -5 -18z"></path><path id="pJXD7mgNl" d="M11228 1303 c39 -2 105 -2 145 0 39 1 7 3 -73 3 -80 0 -112 -2 -72 -3z"></path><path id="pYoCtAHNP" d="M6194 1135 c0 -77 2 -107 3 -67 2 40 2 103 0 140 -2 37 -3 4 -3 -73z"></path><path id="p1AEthjTx2" d="M9283 1253 c71 -2 183 -2 250 0 67 1 10 3 -128 3 -137 0 -192 -2 -122 -3z"></path><path id="p4vGBlfHM" d="M2013 1163 c9 -2 25 -2 35 0 9 3 1 5 -18 5 -19 0 -27 -2 -17 -5z"></path><path id="p1FzMUy0oR" d="M11743 1135 c0 -22 2 -30 4 -17 2 12 2 30 0 40 -3 9 -5 -1 -4 -23z"></path><path id="p3rIdgxqv" d="M8263 1115 c0 -27 2 -38 4 -22 2 15 2 37 0 50 -2 12 -4 0 -4 -28z"></path><path id="p12iQcl0bq" d="M5908 943 c5 -76 10 -83 11 -15 0 34 -2 62 -7 62 -4 0 -6 -21 -4 -47z"></path><path id="pRzfXnhJp" d="M7593 900 c0 -25 2 -35 4 -22 2 12 2 32 0 45 -2 12 -4 2 -4 -23z"></path><path id="pX4VBzlHA" d="M1367 467 c-16 -42 -9 -57 28 -57 24 0 35 5 35 15 0 13 -9 17 -37 14 -5 0 -10 10 -13 23 -5 21 -7 21 -13 5z"></path><path id="p1EMJcAUIo" d="M1160 176 c0 -17 42 -28 75 -20 46 11 30 34 -25 34 -36 0 -50 -4 -50 -14z"></path></g></g><g id="l4ZrhPrP7NKvp3L5M2nIknQ" fill="rgb(197,102,102)" style="transform: none;"><g style="transform: none;"><path id="pUYjwr3Wt" d="M20 3925 l0 -3925 150 0 150 0 0 1424 c0 942 -3 1427 -10 1431 -7 4 -7 12 0 25 7 12 10 859 10 2494 l0 2476 -150 0 -150 0 0 -3925z"></path><path id="p16d0NNuxy" d="M1094 5368 c3 -1366 7 -3094 7 -3840 l-1 -1357 43 -6 c44 -6 11929 -1 11960 6 12 2 17 13 17 39 0 19 3 1746 7 3838 l6 3802 -151 0 -152 0 -2 -2632 -3 -2633 -5710 0 -5710 0 -3 2633 -2 2632 -157 0 -156 0 7 -2482z m11656 -3107 c7 -13 10 -319 10 -920 l0 -901 -5690 0 -5690 0 0 913 c0 503 3 917 7 920 3 4 2559 7 5679 7 5599 0 5673 0 5684 -19z"></path><path id="pl0yXVoX9" d="M4260 7838 c-1 -7 -2 -1083 -3 -2390 l-2 -2378 435 -2 c239 -2 438 -2 443 0 4 2 7 1078 7 2393 l0 2389 -155 0 -155 0 -2 -2282 -3 -2283 -132 -3 -133 -3 0 2286 0 2285 -150 0 c-113 0 -150 -3 -150 -12z"></path><path id="p16efEoxYE" d="M9060 5460 l0 -2390 442 0 443 0 0 2388 0 2387 -152 3 -153 3 -2 -2283 -3 -2283 -130 0 -130 0 -3 2283 -2 2282 -155 0 -155 0 0 -2390z"></path><path id="p6KjqWpYR" d="M13838 5378 c-2 -1360 -2 -2476 0 -2480 1 -4 2 -657 2 -1452 l0 -1446 150 0 150 0 0 3925 0 3925 -150 0 -150 0 -2 -2472z"></path></g></g></svg>