<svg width="580" height="400" xmlns="http://www.w3.org/2000/svg">
 <!-- Created with SVG Editor - http://github.com/mzalive/SVG Editor/ -->

 <g>
  <title>background</title>
  <rect fill="#C1C6DEFF" id="canvas_background" height="402" width="582" y="-1" x="-1"/>
  <g display="none" overflow="visible" y="0" x="0" height="100%" width="100%" id="canvasGrid">
   <rect fill="url(#gridpattern)" stroke-width="0" y="0" x="0" height="100%" width="100%"/>
  </g>
 </g>
 <g>
  <title>Layer 1</title>
  <metadata>Created by potrace 1.15, written by Peter Selinger 2001-2017</metadata>
  <g stroke="null" id="svg_55">
   <g id="svg_4" fill="#e91e63" transform="matrix(0.0486036 0 0 -0.0486036 -1066.12 -379.554)">
    <path stroke="null" id="svg_5" d="m26184.755859,-8322.583984c-30,-20 -36,-21 -107,-9c-42,7 -78,10 -81,8c-3,-3 0,-20 6,-38c6,-18 8,-35 4,-39c-4,-4 -52,-7 -107,-7c-92,-1 -102,-2 -119,-23c-16,-20 -21,-21 -40,-11c-17,9 -38,9 -91,-1c-59,-10 -69,-15 -74,-36c-7,-28 -25,-30 -58,-9c-22,15 -24,14 -36,-14c-7,-17 -20,-32 -29,-35c-127,-37 -161,-49 -156,-57c4,-5 24,-9 46,-9c21,0 39,-2 39,-5c0,-3 -11,-22 -24,-43c-25,-39 -25,-40 -183,-82c-24,-6 -43,-15 -43,-19c0,-5 28,-12 63,-16c73,-9 114,-22 101,-34c-5,-5 -30,-16 -56,-26c-27,-10 -48,-21 -48,-25c0,-12 60,-34 94,-34c17,0 83,3 147,8c93,7 118,6 127,-5c43,-51 65,-84 107,-157c32,-56 50,-79 56,-71c6,10 11,10 24,-1c30,-25 37,-48 21,-77c-13,-26 -13,-28 15,-45c33,-20 35,-37 14,-99c-13,-35 -13,-48 -4,-67c11,-19 9,-29 -11,-64l-23,-41l21,-17c11,-10 24,-30 28,-46c19,-81 77,-148 159,-185c28,-13 53,-25 56,-26c3,-2 18,8 32,21c20,19 27,35 27,64c0,48 42,133 83,168c18,15 52,36 77,46c81,35 90,41 115,83c29,50 70,72 158,86c129,19 237,47 237,59c0,6 -13,10 -29,10c-46,0 -91,12 -91,23c0,20 53,67 75,67c12,0 30,-7 41,-15c24,-18 34,-19 34,-1c0,12 -59,43 -117,60c-17,5 -53,67 -53,90c0,2 15,7 34,10c19,4 39,13 46,21c17,20 33,19 80,-5c49,-25 53,-25 45,0c-5,15 1,23 32,36c25,11 33,18 23,21c-26,9 -51,36 -72,76c-11,22 -18,40 -16,41c2,2 18,8 36,15c36,15 35,13 18,61c-13,34 -12,37 20,73c39,43 42,53 13,62c-36,12 -15,27 96,70c60,23 111,47 113,53c5,15 9,15 -158,-3c-126,-14 -143,-14 -169,0c-41,20 -54,19 -189,-14c-135,-34 -183,-40 -189,-25c-9,27 159,93 302,118c54,10 68,14 43,15c-27,1 -41,8 -55,27l-19,26l-153,-17c-84,-9 -156,-14 -159,-11c-3,4 5,17 18,31l23,25l-50,0c-28,0 -63,2 -79,5c-20,4 -40,-1 -61,-15z"/>
    <path stroke="null" id="svg_6" d="m24804.755859,-8326.583984c-17,-8 -34,-24 -38,-35c-9,-28 -24,-35 -140,-61c-55,-12 -104,-26 -108,-30c-5,-4 6,-19 24,-34c24,-21 41,-26 73,-25c22,1 54,-4 69,-10c43,-17 80,-13 167,16c44,15 83,23 87,19c13,-13 -13,-40 -63,-66c-38,-20 -67,-26 -136,-28c-68,-3 -88,-7 -88,-18c0,-8 10,-18 23,-23c12,-5 45,-19 72,-31l50,-22l-25,-20c-38,-31 -106,-20 -140,22c-54,68 -107,116 -148,132l-42,16l-55,-43l-56,-43l68,-22c81,-27 93,-35 59,-44c-47,-12 -25,-56 27,-56c16,0 45,10 64,21c27,17 39,19 57,12c29,-14 86,-62 86,-74c0,-12 -57,-12 -65,1c-3,6 -13,10 -21,10c-12,0 -12,-4 -4,-21c8,-15 8,-24 0,-33c-14,-18 197,-42 255,-29l40,9l-47,22c-27,11 -48,25 -48,30c0,5 22,12 49,15c51,6 102,27 135,56c17,15 17,16 -15,21c-45,7 -45,20 0,52c32,23 49,28 93,27c46,-1 62,4 126,42c68,41 71,44 47,52c-14,5 -25,12 -25,16c0,4 51,29 113,56c61,27 114,50 117,53c11,8 -40,28 -130,50c-122,30 -454,42 -507,18z"/>
    <path stroke="null" id="svg_7" d="m29091.755859,-8519.583984c-8,-3 -26,-10 -39,-15c-24,-9 -23,-10 28,-39c51,-29 84,-33 46,-5c-13,9 -16,20 -11,39c6,27 3,30 -24,20z"/>
    <path stroke="null" id="svg_8" d="m29161.755859,-8544.583984c0,-14 50,-68 63,-68c6,0 2,9 -8,20c-17,18 -16,19 10,26c16,4 36,2 46,-5c21,-12 92,-15 103,-4c4,4 -21,15 -56,25c-73,21 -158,24 -158,6z"/>
    <path stroke="null" id="svg_9" d="m28272.755859,-8596.583984c-29,-31 -20,-46 26,-46c34,0 93,27 93,42c0,11 -45,28 -74,28c-12,0 -33,-11 -45,-24z"/>
    <path stroke="null" id="svg_10" d="m30649.755859,-8608.583984c-16,-8 -28,-18 -28,-22c0,-7 64,-29 173,-59c14,-5 17,2 17,43l0,47l-23,-21l-23,-22l-24,25c-27,28 -53,31 -92,9z"/>
    <path stroke="null" id="svg_11" d="m27940.755859,-8609.583984c-14,-3 -15,-9 -6,-36c5,-18 12,-38 14,-46c2,-9 12,-11 31,-7c59,14 102,18 102,11c0,-5 -7,-16 -16,-26c-9,-10 -18,-38 -20,-61c-2,-35 1,-46 17,-56c17,-11 24,-5 73,70l53,82l-56,27c-65,33 -80,35 -107,14c-30,-23 -54,-19 -54,10c0,25 -2,26 -31,18z"/>
    <path stroke="null" id="svg_12" d="m24028.755859,-8649.583984c-4,-3 29,-26 74,-50c45,-25 83,-42 85,-40c10,9 -39,57 -79,76c-45,22 -69,26 -80,14z"/>
    <path stroke="null" id="svg_13" d="m30890.755859,-8681.583984c-35,-36 -38,-56 -6,-47c12,4 43,12 70,18c26,6 47,14 47,18c0,6 -65,40 -76,40c-3,0 -19,-13 -35,-29z"/>
    <path stroke="null" id="svg_14" d="m30563.755859,-8768.583984c-37,-25 -25,-34 45,-34l66,0l-23,25c-27,29 -56,32 -88,9z"/>
    <path stroke="null" id="svg_15" d="m30933.755859,-8784.583984c-6,-7 -14,-29 -19,-48c-11,-41 -16,-43 -218,-65c-140,-16 -235,-34 -288,-54l-29,-11l21,-34c12,-18 21,-36 21,-38c0,-3 -42,-3 -92,-1c-118,5 -131,-2 -91,-54c50,-64 64,-89 57,-107c-9,-24 -32,-19 -48,12c-23,45 -54,67 -96,67c-51,0 -58,-9 -36,-45l17,-30l-27,0c-18,0 -40,13 -67,41c-38,38 -42,39 -54,23c-25,-35 -4,-134 29,-134c38,0 78,-31 108,-83c36,-63 37,-67 5,-67c-19,0 -32,11 -53,45c-15,25 -30,45 -34,45c-4,0 -22,-19 -40,-42c-94,-118 -123,-131 -174,-77l-29,32l52,-6l52,-6l12,37c14,40 14,212 1,272c-7,32 -11,35 -42,35c-31,0 -39,-6 -78,-63l-44,-62l31,-36c40,-45 42,-84 4,-84c-15,0 -46,9 -70,21c-57,27 -125,28 -161,2c-28,-21 -92,-36 -92,-22c0,5 -19,-1 -42,-11c-47,-22 -84,-25 -93,-10c-12,19 -45,10 -135,-35c-53,-27 -103,-45 -123,-45c-32,0 -34,2 -29,27c3,18 -1,30 -13,40c-31,22 -35,16 -33,-44l3,-57l-54,-15c-43,-12 -58,-21 -73,-48c-16,-27 -26,-33 -53,-33c-27,0 -34,-4 -37,-22c-4,-29 -42,-27 -76,5c-26,24 -95,137 -89,144c3,2 35,-3 71,-12c101,-23 140,-20 177,13l31,28l-142,67c-129,62 -147,67 -186,61c-41,-6 -45,-4 -61,24c-15,27 -25,32 -78,39c-76,11 -117,2 -227,-49c-65,-30 -93,-49 -108,-73c-11,-18 -55,-64 -98,-101c-101,-90 -101,-91 -102,-146c0,-44 -2,-48 -27,-54c-67,-14 -145,-75 -145,-114c-1,-41 14,-124 25,-137c15,-20 31,-16 86,22c52,34 52,34 60,12c40,-103 65,-163 71,-170c4,-4 28,2 55,13c26,11 45,23 42,26c-2,3 11,31 30,62c27,45 33,64 29,92c-3,19 -8,59 -12,87l-7,53l72,68c39,38 71,76 71,84c0,31 27,47 68,41c20,-3 39,-7 40,-9c12,-9 -15,-72 -44,-103c-44,-49 -57,-86 -49,-139l6,-44l107,7c106,7 107,7 131,-19c17,-18 20,-26 10,-26c-23,-1 -152,-20 -171,-26c-20,-6 -24,-44 -7,-61c6,-6 7,-22 3,-37c-5,-23 -11,-26 -28,-21c-53,17 -61,13 -67,-39c-7,-62 -34,-86 -96,-86c-24,0 -61,-9 -83,-20c-42,-22 -85,-26 -95,-10c-3,6 -26,10 -50,10c-56,0 -80,29 -69,84c4,22 2,36 -4,36c-5,0 -13,-32 -17,-70c-7,-65 -9,-71 -34,-76c-46,-12 -80,-33 -134,-87c-29,-29 -98,-81 -155,-116c-56,-35 -102,-66 -102,-70c0,-3 9,-12 20,-19c54,-33 78,-154 39,-193c-19,-19 -28,-20 -119,-14c-94,7 -98,7 -110,-14c-6,-13 -10,-39 -9,-59c1,-20 -1,-58 -5,-83c-13,-81 28,-119 131,-119c71,0 123,24 142,65c7,17 28,46 46,65c18,19 45,55 60,78c31,51 109,92 188,100c45,4 51,2 90,-35c74,-69 188,-165 191,-162c11,12 16,49 7,49c-17,0 -151,173 -151,196c0,12 7,27 15,34c13,11 31,-1 113,-77c74,-67 105,-104 129,-152c41,-81 52,-93 74,-88c10,3 24,-1 30,-9c10,-12 7,-20 -11,-39c-27,-29 -13,-33 21,-6l23,19l-19,41c-18,41 -18,42 1,62c13,12 40,22 75,25c63,7 79,23 79,78c0,53 32,116 81,160c50,46 74,46 95,3c19,-40 54,-67 54,-41c0,8 -4,23 -10,33c-8,16 -3,21 35,35c24,10 55,16 67,14c23,-3 24,-9 12,-59c-5,-22 3,-35 55,-86c104,-102 78,-135 -88,-113c-120,16 -168,10 -260,-31c-70,-31 -71,-32 -71,-70c0,-92 38,-113 194,-108l101,4l-2,-27c-3,-50 -45,-188 -65,-213c-16,-21 -28,-25 -68,-25c-82,0 -197,20 -266,46c-37,14 -75,22 -85,19c-11,-4 -28,-24 -39,-44c-10,-21 -27,-42 -37,-46c-20,-7 -251,106 -280,137c-12,13 -14,29 -9,64c9,71 -3,84 -78,84c-76,0 -219,-23 -301,-50c-33,-10 -85,-22 -115,-25c-61,-8 -75,-17 -131,-88c-25,-32 -39,-59 -39,-78c0,-48 -23,-89 -104,-182c-114,-132 -126,-161 -138,-336c-5,-80 -10,-157 -11,-171c-1,-43 149,-305 201,-350c67,-59 88,-62 249,-34c241,42 239,42 279,3c29,-28 42,-33 77,-32c71,2 77,-11 77,-154l0,-123l66,-127c83,-160 88,-195 48,-320c-34,-107 -36,-181 -4,-242c12,-24 28,-82 36,-129c18,-109 56,-226 102,-317c21,-41 37,-92 41,-124c8,-73 18,-78 128,-62c110,15 191,51 242,106c50,55 66,85 92,182c16,60 29,85 54,109c43,39 51,72 34,141c-16,70 -7,89 76,153c85,66 105,99 105,172c0,33 -12,105 -26,161c-46,177 -31,218 148,418c90,101 144,176 173,245c25,58 65,177 62,181c-2,2 -45,-5 -94,-15c-126,-26 -131,-23 -232,128c-103,154 -135,217 -160,318c-11,46 -42,123 -71,177c-27,53 -50,107 -50,120c0,21 3,23 30,15c16,-5 40,-17 54,-27c27,-20 66,-82 66,-105c0,-8 18,-49 41,-92c22,-42 46,-95 54,-116c8,-22 25,-55 38,-73c41,-54 58,-96 71,-171c10,-61 15,-71 33,-74c33,-5 328,149 391,204c52,45 102,117 102,146c0,8 -28,40 -63,70l-63,56l-40,-24c-47,-28 -66,-30 -87,-6c-21,23 -117,209 -117,227c0,8 10,19 21,26c29,15 60,-2 95,-52c28,-41 94,-79 137,-79c15,0 54,-13 87,-30c41,-21 74,-30 107,-30c128,0 293,-83 293,-146c0,-24 1,-24 30,-9c46,24 50,20 50,-44c0,-114 45,-272 121,-423c22,-43 41,-78 43,-78c14,0 48,105 60,185c9,60 22,105 34,122c11,16 69,76 129,134c101,100 112,107 167,120l58,13l29,-35c45,-53 80,-132 82,-183c1,-25 4,-46 7,-46c3,0 24,11 47,24c50,29 42,41 74,-128c20,-111 22,-117 34,-90c18,42 39,56 82,52c36,-3 40,-7 78,-75c22,-40 42,-72 45,-72c3,0 30,22 60,48c52,46 55,52 54,93c-1,32 -16,76 -52,153c-29,59 -52,117 -52,129c0,36 59,85 100,84c45,-1 230,69 274,104c19,15 58,66 86,113l52,86l-11,77c-5,43 -6,78 -1,80c5,2 -2,27 -16,55c-31,67 -30,79 6,121c34,38 27,46 -35,46c-18,0 -38,7 -45,14c-23,29 -7,60 54,100l59,39l18,-21c11,-14 28,-22 49,-22c46,0 73,-34 100,-128c24,-83 39,-99 68,-70c18,18 15,48 -13,123l-25,67l26,31c15,18 49,56 76,86c47,51 52,55 93,52l43,-2l60,83c101,141 142,243 142,358c0,46 -27,74 -63,65c-28,-8 -72,12 -102,45l-20,22l89,84c49,46 114,99 145,117c56,33 57,33 181,31c69,-1 142,-5 162,-9c34,-7 40,-5 65,25c44,51 139.998047,110 179.998047,110c33,0 34,-1 28,-31l-7,-31l31,16c17,9 38,28 47,42c20,29 50,48 64,39c22,-13 -38,-89 -142,-181c-112.998047,-99 -128.998047,-121 -147.998047,-196c-13,-50 0,-140 23,-173c12,-15 18,-9 59.998047,52c26,37 64,90 85,118c34,46 37,54 37,120c0,38 6,80 12,91c7,12 41,34 77,49c52,22 73,26 113,21c78,-9 80,-9 129,25c61,41 134,69 184,69c21,0 42,5 45,10c4,6 -17,37 -45,70c-51,59 -52,60 -28,69c12,5 46,19 73,31c66,28 122,21 193,-26c30,-19 57,-34 62,-32c12,5 102,89 98,93c-2,1 -23,13 -47,25c-42,21 -45,21 -57,5c-8,-10 -15,-23 -18,-29c-3,-6 -10,-3 -17,8c-30,48 -96,108 -145,132c-36,18 -101,34 -197,50c-78,13 -145,24 -148,24c-3,0 -4,-13 -1,-28c6,-43 -18,-58 -60,-36c-21,11 -72,20 -143,25c-60,4 -113,8 -117,8c-4,1 -26,20 -48,42l-41,42l-69.998047,-6c-102,-9 -171,8 -209,49c-33,37 -52,41 -90,19c-14,-8 -35,-14 -48,-15c-18,0 -22,4 -17,19c7,22 -17,31 -85,31c-40,0 -51,-5 -85,-40l-39,-40l-92,0c-61,0 -104,-5 -130,-16c-32,-13 -42,-14 -59,-3c-31,19 -115,91 -115,99c0,4 12,12 27,19l26,12l-22,16c-19,13 -37,14 -95,8c-95,-10 -192,-10 -299,0c-88,8 -89,8 -105,42c-9,19 -23,33 -34,33c-24,0 -23,-12 3,-28c28,-18 19,-25 -15,-13c-22,9 -26,8 -26,-9c0,-30 -39,-50 -97,-50c-94,0 -80,17 86,105c52,27 77,46 79,60c5,42 -12,49 -125,56c-136,8 -149,13 -144,57c1,7 -10,12 -27,12c-16,0 -34,-6 -40,-12zm-2347,-963c32,-31 31,-43 -1,-51c-17,-4 -31,-1 -41,9c-10,10 -13,24 -9,41c8,32 20,33 51,1zm678,-739c16,-13 15,-15 -12,-42c-43,-43 -45,-63 -14,-124c23,-44 34,-56 61,-62c36,-10 42,-24 12,-33c-18,-6 -19,-13 -13,-85l6,-79l-27,-7c-39,-9 -94,4 -106,26c-6,12 -8,46 -4,82c5,56 3,69 -21,112c-31,58 -43,133 -26,165c27,49 106,75 144,47zm277,-55c0,-9 -7,-27 -16,-39c-32,-46 -54,-15 -30,43c14,32 18,35 31,25c8,-7 15,-20 15,-29z"/>
    <path stroke="null" id="svg_16" d="m23541.755859,-8829.583984c-62,-29 -72,-36 -57,-44c19,-11 57,-3 57,12c0,6 20,19 45,30c25,11 45,24 45,29c0,14 -7,12 -90,-27z"/>
    <path stroke="null" id="svg_17" d="m24376.755859,-8857.583984c22,-8 54,-30 70,-49l30,-34l164,-10c164,-10 220,-5 205,19c-5,9 -44,10 -134,6c-151,-6 -192,1 -234,42c-26,25 -43,33 -87,36l-54,5l40,-15z"/>
    <path stroke="null" id="svg_18" d="m23891.755859,-8866.583984c0,-8 -8,-24 -18,-36l-19,-23l-93,31c-51,18 -96,30 -98,27c-2,-2 -2,-15 2,-29c5,-22 11,-25 48,-23c36,2 44,-2 55,-24l12,-26l95,25l95,25l-36,33c-40,38 -43,40 -43,20z"/>
    <path stroke="null" id="svg_19" d="m24131.755859,-8861.583984c0,-5 18,-24 41,-42c47,-37 70,-29 47,18c-10,22 -21,29 -51,31c-20,2 -37,-1 -37,-7z"/>
    <path stroke="null" id="svg_20" d="m29645.755859,-8868.583984c-50,-8 -127,-24 -170,-37c-77,-21 -80,-23 -105,-71c-15,-27 -25,-55 -23,-61c3,-6 -13,-24 -36,-40c-37,-25 -51,-45 -32,-45c4,0 18,-16 31,-35c16,-24 31,-35 48,-35c19,0 23,4 19,18c-19,62 -18,71 12,114c66,96 97,115 292,176c106,33 98,37 -36,16z"/>
    <path stroke="null" id="svg_21" d="m32116.755859,-8893.583984c-10,-32 13,-45 74,-41c63,5 68,24 9,41c-24,7 -51,14 -60,17c-11,3 -19,-3 -23,-17z"/>
    <path stroke="null" id="svg_22" d="m23453.755859,-9000.583984c-11,-11 -27,-40 -37,-66c-17,-44 -17,-47 0,-66c10,-11 27,-20 37,-20c11,0 60,28 110,62c102,71 102,82 -1,93c-31,4 -64,9 -73,11c-9,3 -26,-4 -36,-14z"/>
    <path stroke="null" id="svg_23" d="m24389.755859,-9013.583984c-18,-10 -25,-68 -11,-83c7,-7 93,72 93,86c0,11 -62,9 -82,-3z"/>
    <path stroke="null" id="svg_24" d="m24213.755859,-9029.583984c-11,-10 -27,-30 -36,-44c-16,-26 -16,-28 10,-48c29,-23 64,-27 95,-10c19,10 19,12 5,34c-9,14 -16,38 -16,55c0,35 -25,41 -58,13z"/>
    <path stroke="null" id="svg_25" d="m24590.755859,-9045.583984c-32,-17 -64,-76 -56,-108c16,-62 57,-78 204,-79c87,0 195,-19 262,-46c47,-19 84,-58 102,-109c8,-20 20,-35 29,-35c9,0 25,-6 35,-14c18,-13 18,-14 -2,-25c-16,-8 -30,-8 -54,1c-28,9 -34,8 -46,-7c-7,-11 -13,-27 -13,-37c0,-10 -7,-18 -15,-18c-30,0 -115,-22 -115,-30c0,-4 28,-11 62,-15c85,-10 117,-23 225,-88l93,-56l20,39c27,53 26,60 -19,116c-48,61 -57,87 -36,108c22,22 26,21 78,-19c25,-19 49,-35 54,-35c4,0 19,16 32,36c21,30 22,37 10,45c-18,12 -148,74 -173,83c-15,5 -17,13 -12,45c6,38 5,39 -40,61c-26,12 -69,30 -97,41c-28,11 -68,36 -89,55c-41,37 -80,44 -112,19c-51,-38 -146,5 -132,60c6,23 4,24 -26,18c-39,-7 -46,-16 -53,-63c-3,-19 -9,-48 -13,-65l-8,-29l-22,22c-22,22 -31,82 -12,82c6,0 10,-5 10,-12c0,-6 2,-9 5,-6c10,9 -14,57 -33,67c-13,7 -26,6 -43,-2z"/>
    <path stroke="null" id="svg_26" d="m23950.755859,-9087.583984c-18,-25 -34,-45 -37,-45c-2,0 -18,12 -35,26c-32,27 -46,28 -132,9c-27,-6 -32,-3 -40,20l-10,27l-42,-31c-70,-51 -51,-94 42,-97c64,-2 95,-11 95,-29c0,-9 -20,-15 -60,-20c-33,-4 -60,-10 -60,-14c0,-11 71,-48 105,-55c20,-4 54,2 102,19c83,29 119,31 169,10c34,-14 35,-14 46,11c11,23 9,28 -21,51c-37,29 -70,93 -71,136c0,38 -14,34 -51,-18z"/>
    <path stroke="null" id="svg_27" d="m24348.755859,-9180.583984c-22,-24 -22,-29 8,-64c28,-33 31,-52 12,-88c-11,-22 -20,-25 -72,-26c-33,-1 -96,-5 -140,-9c-78,-7 -84,-6 -143,24c-72,36 -87,39 -70,12c11,-18 5,-33 -43,-104c-4,-5 -23,2 -42,17c-25,20 -55,30 -104,37c-89,12 -91,13 -95,45c-3,25 -10,30 -73,47c-38,10 -110,22 -160,27c-49,5 -104,12 -120,15c-24,5 -48,-3 -117,-39c-48,-25 -91,-46 -97,-46c-5,0 -13,9 -16,20c-13,41 -25,19 -19,-35c10,-81 -7,-73 -72,33c-1,2 -72,21 -158,42c-177,44 -452,95 -509,94c-28,0 -77,-20 -175,-70c-75,-39 -137,-75 -139,-80c-1,-5 32,-31 75,-59c42,-27 77,-56 77,-64c0,-27 -31,-36 -74,-21c-32,10 -46,10 -70,0c-39,-16 -39,-24 -1,-62c32,-31 52,-33 133,-13c25,7 27,5 27,-22c0,-32 -25,-61 -75,-86c-17,-8 -38,-24 -48,-35c-16,-17 -17,-24 -7,-44c18,-33 62,-78 77,-78c8,0 28,-10 44,-22c24,-18 44,-23 90,-23c32,0 59,-1 59,-1c0,-1 -6,-17 -14,-35c-7,-19 -17,-45 -21,-58l-7,-23l32,18c44,26 104,93 130,146c37,73 58,89 89,69c11,-7 10,-13 -4,-35c-25,-38 -6,-54 26,-22c13,13 31,34 40,47l15,22l78,-32c42,-17 125,-45 184,-60c133,-35 161,-49 208,-105c21,-25 50,-50 66,-57c31,-13 52,-45 61,-95c11,-60 79,-158 170,-245c98,-94 107,-117 49,-134l-34,-10l4,-165c3,-155 5,-168 31,-221c31,-64 112,-174 154,-210c47,-40 71,-77 94,-147c36,-111 128,-271 169,-297c17,-11 12,2 -60,139c-67,127 -83,177 -60,191c19,12 72,-57 183,-235c70,-113 107,-183 107,-201c0,-15 10,-39 23,-53c34,-38 212,-123 287,-136c91,-17 126,-31 224,-95c61,-40 92,-67 105,-93c32,-61 107,-122 151,-122c15,0 35,7 46,15c18,13 17,14 -16,15c-74,0 -106,56 -95,163c8,76 1,85 -77,96c-30,4 -59,10 -66,15c-17,10 -15,49 8,136c11,41 20,76 20,78c0,1 -16,2 -35,2c-37,0 -85,-35 -85,-63c0,-7 -10,-23 -23,-35c-29,-27 -110,-30 -145,-6c-52,36 -75,139 -63,279c7,70 13,90 32,111c51,54 94,64 184,40c45,-12 51,-12 56,3c14,36 50,56 99,56c78,0 107,-29 161,-162c12,-29 28,-53 35,-53c17,0 18,-7 -6,92c-23,94 -25,150 -8,181c6,12 37,54 69,93c61,74 79,122 79,216c0,35 2,38 19,28c27,-14 25,-15 56,34c15,24 44,52 64,63c26,14 40,31 52,63c19,53 54,80 141,109c99,33 129,24 66,-20c-17,-13 -27,-24 -20,-27c13,-4 96,47 88,55c-3,3 -26,20 -52,37c-26,17 -54,41 -62,53c-13,21 -12,23 12,34c33,15 36,43 4,34c-44,-13 -112,-46 -130,-62c-35,-32 -20,14 19,58c50,55 79,68 202,90c170,30 194,39 205,78c13,47 -11,65 -76,56c-27,-3 -48,-2 -48,3c0,4 13,21 30,37l30,29l-43,23c-54,31 -70,51 -119,150l-40,82l-50,-35c-61,-42 -81,-42 -119,-5c-31,31 -35,51 -19,81c8,15 3,24 -28,48c-20,16 -52,34 -71,40c-45,16 -126,15 -138,0c-6,-7 -13,-51 -17,-97c-5,-66 -3,-96 10,-139c15,-47 16,-60 4,-101c-7,-25 -21,-85 -30,-132c-10,-48 -20,-91 -24,-97c-13,-22 -47,-20 -77,5c-40,34 -59,73 -59,121c0,22 -6,45 -14,51c-7,6 -53,25 -102,41c-101,34 -155,68 -184,116c-11,18 -34,37 -50,43c-17,5 -35,21 -41,34c-9,21 -4,36 40,115c57,100 93,136 150,152c61,16 68,34 26,59c-43,25 -38,41 13,41c57,0 66,-12 72,-82c6,-71 23,-85 59,-49c23,23 52,27 82,11c12,-7 19,-7 19,-1c0,16 -30,40 -79,65c-54,28 -89,63 -75,75c5,5 40,19 77,31c55,18 67,25 62,39c-11,26 -23,64 -29,94c-5,21 -12,27 -34,27c-24,0 -33,-9 -63,-60c-18,-33 -39,-60 -45,-60c-6,0 -23,27 -37,60c-15,33 -30,60 -35,60c-5,0 -19,-11 -32,-25c-26,-28 -40,-32 -40,-11c0,8 -11,28 -25,44c-14,17 -25,39 -25,50c0,19 -42,62 -60,62c-4,0 -14,-8 -23,-18zm296,-1236c12,-14 34,-38 49,-55c15,-16 50,-38 77,-48c27,-10 50,-22 51,-26c2,-5 -7,-27 -20,-48l-22,-40l-41,60c-23,34 -45,61 -48,61c-3,0 -21,-38 -39,-85c-18,-46 -36,-82 -40,-80c-5,3 -11,23 -15,44c-7,43 20,112 52,130c22,12 16,15 -81,32l-69,12l36,33c44,41 79,44 110,10zm327,-183c0,-10 -184,-113 -201,-113c-21,0 2,18 92,70c81,47 109,58 109,43z"/>
    <path stroke="null" id="svg_28" d="m24226.755859,-9273.583984c-9,-14 23,-49 45,-49c9,0 25,9 34,19c17,19 17,20 -21,30c-47,13 -50,13 -58,0z"/>
    <path stroke="null" id="svg_29" d="m26866.755859,-9486.583984c-27,-13 -59,-31 -70,-40c-20,-16 -20,-16 8,-41c47,-42 144,-28 222,31c18,14 19,17 5,42c-22,38 -95,42 -165,8z"/>
    <path stroke="null" id="svg_30" d="m27374.755859,-9894.583984c-52,-57 -52,-96 -2,-159c34,-43 37,-86 9,-122l-20,-25l26,-17c25,-16 25,-17 8,-36c-17,-19 -16,-19 35,-19c53,0 106,20 113,42c5,14 -42,99 -95,171c-31,43 -37,58 -32,85c5,28 3,32 -15,32c-22,0 -26,20 -10,51c14,25 8,24 -17,-3z"/>
    <path stroke="null" id="svg_31" d="m27253.755859,-10070.583984c-14,-9 -76,-141 -69,-148c6,-6 54,15 90,39c22,15 27,26 27,57c0,41 -24,66 -48,52z"/>
    <path stroke="null" id="svg_32" d="m32247.755859,-10138.583984c-9,-24 -7,-70 6,-140c8,-48 16,-64 28,-64c15,0 15,9 1,110c-14,106 -22,128 -35,94z"/>
    <path stroke="null" id="svg_33" d="m25588.755859,-10343.583984c-66,-54 -37,-108 44,-80c41,14 39,15 39,-14c0,-23 3,-25 28,-19c15,4 28,8 29,8c1,1 -2,18 -7,38c-8,29 -18,39 -51,52c-28,12 -39,21 -35,31c8,23 -6,18 -47,-16z"/>
    <path stroke="null" id="svg_34" d="m32221.755859,-10567.583984c-6,-15 -10,-30 -10,-34c0,-4 -9,-16 -20,-26c-23,-21 -26,-48 -7,-63c10,-8 25,-6 58,9c114,53 119,65 41,110l-52,30l-10,-26z"/>
    <path stroke="null" id="svg_35" d="m32161.755859,-10808.583984c-19,-32 -37,-67 -40,-78c-3,-12 -19,-26 -35,-31c-17,-6 -59,-27 -95,-47c-36,-21 -89,-47 -118,-59c-59,-24 -60,-28 -34,-113l18,-59l34,54c26,41 42,55 63,57c30,4 36,26 10,41c-10,5 -15,13 -11,16c4,4 22,-2 40,-13l33,-19l76,23l76,24l26,87c32,103 33,123 9,152l-17,22l-35,-57z"/>
    <path stroke="null" id="svg_36" d="m24722.755859,-11541.583984c-21,-13 6,-25 51,-22c44,2 88,-18 141,-65c38,-35 61,-41 87,-24c12,9 8,16 -24,45c-66,59 -208,96 -255,66z"/>
    <path stroke="null" id="svg_37" d="m25104.755859,-11683.583984c-13,-5 -23,-15 -23,-24c0,-9 9,-15 23,-14c23,0 106,16 96,18c-4,0 -22,7 -40,15c-22,9 -42,11 -56,5z"/>
    <path stroke="null" id="svg_38" d="m31528.755859,-11729.583984c-12,-21 -17,-68 -11,-99c5,-28 20,-46 68,-84c33,-26 63,-47 65,-44c2,2 -19,29 -48,59c-55,61 -59,71 -36,115c8,16 12,36 9,44c-6,16 -39,22 -47,9z"/>
    <path stroke="null" id="svg_39" d="m25022.755859,-12046.583984l-64,-64l-43,13l-43,13l31,-40c27,-32 33,-49 36,-103c4,-61 2,-67 -49,-162c-50,-91 -53,-103 -52,-160c1,-35 -2,-63 -8,-63c-18,0 -9,-49 24,-127c19,-43 44,-109 57,-148c43,-130 95,-204 183,-259c72,-44 77,-86 52,-403c-17,-207 -35,-320 -65,-409c-33,-94 -40,-167 -24,-270c10,-73 11,-101 1,-140c-11,-46 -14,-49 -41,-46l-29,3l46,-52c44,-50 44,-52 26,-70c-13,-13 -19,-33 -19,-61c0,-24 -3,-52 -6,-63c-4,-15 7,-29 45,-58l51,-37l14,22c8,13 44,72 79,133l65,109l-24,32c-30,39 -30,55 1,92c42,51 66,115 59,160c-6,36 -4,41 17,47c13,4 46,27 72,51c28,25 67,49 90,55c66,18 97,37 97,61c0,12 -14,46 -31,76c-25,45 -27,54 -12,48c10,-4 42,-10 70,-13c51,-6 54,-4 87,30c52,55 122,201 131,271c4,33 9,65 12,72c12,33 172,134 212,134c52,0 104,124 119,287c9,85 14,99 71,207c34,64 61,129 61,145c0,21 -12,40 -50,75c-53,49 -85,66 -128,66c-50,0 -103,21 -141,56c-47,42 -73,43 -118,4c-37,-33 -45,-35 -74,-19c-19,10 -18,12 16,39c49,39 29,46 -28,8c-65,-42 -75,-28 -27,37c43,58 45,66 31,93c-6,9 -12,30 -16,45c-9,45 -45,73 -126,97c-68,22 -80,30 -153,104l-80,81l-128,25l-129,26l-20,-38c-11,-21 -24,-38 -29,-38c-16,0 -28,34 -23,63c3,15 1,27 -4,27c-5,0 -37,-29 -72,-64z"/>
    <path stroke="null" id="svg_40" d="m31638.755859,-12127.583984c-51,-18 -51,-18 -19,-41c50,-37 62,-37 77,-1c9,22 10,36 3,45c-13,15 -13,15 -61,-3z"/>
    <path stroke="null" id="svg_41" d="m30845.755859,-12216.583984c33,-97 83,-178 96,-156c8,13 -5,81 -22,114c-11,21 -99,136 -103,136c-2,0 11,-42 29,-94z"/>
    <path stroke="null" id="svg_42" d="m31271.755859,-12320.583984l-132,-107l5,-38c10,-74 94,-147 168,-147c44,0 53,10 79,84c10,31 26,66 34,78c22,32 20,81 -4,103c-20,18 -20,19 -2,39c43,50 43,51 13,74l-28,21l-133,-107z"/>
    <path stroke="null" id="svg_43" d="m30731.755859,-12277.583984c0,-3 13,-26 28,-52c16,-27 52,-91 81,-144c49,-90 132,-199 151,-199c4,0 15,21 24,46l16,47l-44,39c-25,21 -83,87 -131,146c-48,59 -95,110 -106,114c-10,4 -19,5 -19,3z"/>
    <path stroke="null" id="svg_44" d="m31484.755859,-12559.583984c4,-38 7,-83 7,-100c0,-18 5,-33 10,-33c6,0 10,24 10,54c0,73 16,80 42,17c12,-28 26,-51 30,-51c15,0 8,35 -17,79c-29,51 -32,71 -7,71c25,1 -4,16 -47,24l-34,6l6,-67z"/>
    <path stroke="null" id="svg_45" d="m31925.755859,-12525.583984c24,-21 26,-27 17,-45c-10,-19 -8,-22 16,-27c88,-18 170,-92 159,-145c-4,-23 1,-28 53,-48c70,-27 86,-27 118,-2c38,30 61,25 114,-25c61,-57 78,-57 45,-1c-14,25 -26,51 -26,60c0,35 -57,80 -174,138c-126,62 -138,64 -205,37c-31,-13 -34,-13 -50,9c-35,50 -47,61 -71,67c-25,6 -25,6 4,-18z"/>
    <path stroke="null" id="svg_46" d="m32514.755859,-12655.583984c-36,-24 -43,-47 -15,-47c20,0 62,39 62,58c0,17 -10,14 -47,-11z"/>
    <path stroke="null" id="svg_47" d="m31036.755859,-12723.583984c-4,-5 -5,-12 -3,-14c1,-2 50,-15 108,-30c58,-14 114,-29 125,-32c18,-5 18,-4 6,11c-24,28 -62,43 -140,55c-41,6 -77,14 -82,16c-4,3 -11,0 -14,-6z"/>
    <path stroke="null" id="svg_48" d="m31671.755859,-12821.583984c-27,-23 -41,-42 -36,-49c7,-11 39,8 99,58c4,4 2,12 -6,18c-10,9 -23,2 -57,-27z"/>
    <path stroke="null" id="svg_49" d="m31881.755859,-12962.583984c-16,-17 -33,-52 -40,-80c-7,-27 -15,-50 -19,-50c-5,0 -34,9 -65,20c-69,23 -88,17 -114,-38c-9,-20 -26,-41 -38,-46c-12,-5 -30,-28 -40,-50c-17,-37 -32,-48 -142,-106c-68,-36 -128,-73 -134,-83c-7,-13 -5,-32 6,-64c20,-58 20,-83 1,-83c-19,0 -19,2 8,-61c29,-66 43,-123 52,-212c8,-71 23,-97 56,-97c11,0 84,29 162,64c79,35 161,69 182,75c90,25 153,6 226,-65l46,-45l28,40c32,47 45,45 45,-9c0,-23 5,-40 14,-43c8,-3 30,-39 50,-80c19,-41 43,-77 52,-81c10,-4 37,-4 61,0c25,4 55,2 71,-5c24,-10 34,-8 74,14c25,14 50,31 55,38c25,32 123,402 123,462c0,45 -29,100 -58,109c-11,4 -57,63 -103,133c-72,108 -90,144 -125,251c-47,141 -47,141 -83,9c-23,-83 -56,-157 -70,-157c-19,0 -117,82 -132,110c-13,24 -15,40 -7,82c12,63 -2,78 -70,78c-36,0 -49,-5 -72,-30z"/>
    <path stroke="null" id="svg_50" d="m29089.755859,-13064.583984c-78,-76 -108,-133 -108,-203c0,-18 -5,-47 -11,-65c-14,-38 3,-131 26,-150c22,-19 63,-3 80,30c33,64 108,441 91,458c-2,1 -37,-30 -78,-70z"/>
    <path stroke="null" id="svg_51" d="m33307.753906,-14059.583984c-16,-46 -16,-47 10,-81l27,-34l33,53c19,29 34,57 34,61c0,7 -72,48 -84,48c-2,0 -11,-21 -20,-47z"/>
    <path stroke="null" id="svg_52" d="m32336.755859,-14192.583984c-7,-11 40,-80 55,-80c12,0 50,50 50,66c0,9 -12,14 -34,14c-19,0 -41,3 -49,6c-8,3 -18,0 -22,-6z"/>
    <path stroke="null" id="svg_53" d="m33213.753906,-14231.583984c-15,-15 -55,-64 -89,-109l-62,-80l31,-11c66,-23 70,-20 126,97c29,59 52,113 52,120c0,21 -31,13 -58,-17z"/>
    <path stroke="null" id="svg_54" d="m25177.755859,-14794.583984l-26,-43l23,-6c62,-16 96,-17 101,-3c6,15 -49,94 -65,94c-4,0 -19,-19 -33,-42z"/>
   </g>
  </g>
  <g stroke="null" id="svg_75">
   <g stroke="null" transform="matrix(0.600506 0 0 0.600506 17.8571 99.7656)" stroke-width="0" id="svg_73"/>
   <g stroke="null" transform="matrix(0.600506 0 0 0.600506 17.8571 99.7656)" stroke-linejoin="round" stroke-linecap="round" id="svg_72"/>
   <g stroke="null" transform="matrix(0.600506 0 0 0.600506 17.8571 99.7656)" id="svg_65">
    <title stroke="null"/>
    <desc stroke="null"/>
    <g id="svg_66" fill-rule="evenodd" fill="none">
     <g stroke="null" id="svg_67" fill="#10297DE5">
      <path stroke="null" id="svg_71" fill-rule="nonzero" d="m167.775299,121.957672l24.179993,0l1.009995,-10l-26.199997,0l1.01001,10zm2.209991,-8c0.549438,-0.052208 1.037292,0.350609 1.090012,0.900002l0.409988,4c0.050171,0.550735 -0.35022,1.0401 -0.900009,1.099998l-0.099991,0c-0.514404,-0.000214 -0.945801,-0.388451 -1,-0.900009l-0.399994,-4c-0.050171,-0.550735 0.35022,-1.0401 0.899994,-1.099991z"/>
      <path stroke="null" id="svg_69" fill-rule="nonzero" d="m196.655273,74.957672l-33.579971,0l1,10l31.579971,0l1,-10zm-29.769989,8l-0.100006,0c-0.514389,-0.000206 -0.945786,-0.388451 -1,-0.900009l-0.399979,-4c-0.050171,-0.550728 0.350235,-1.0401 0.899979,-1.099991c0.549454,-0.052208 1.037292,0.350609 1.089996,0.900002l0.410004,4c0.050186,0.550735 -0.35022,1.0401 -0.899994,1.099998z"/>
      <polygon stroke="null" points="193.9782943725586,109.98367166519165 193.97928619384766,109.98267221450806 193.97928619384766,109.95767068862915 193.9782943725586,109.95767068862915 " id="svg_70"/>
      <polygon stroke="null" points="194.86528778076172,70.95767068862915 164.86528778076172,70.95767068862915 159.86528778076172,70.95767068862915 159.86528778076172,72.95767068862915 161.96529388427734,72.95767068862915 197.76529693603516,72.95767068862915 200.86627960205078,72.95767068862915 200.86528778076172,70.95767068862915 " id="svg_68"/>
      <path stroke="null" id="Shape" fill-rule="nonzero" d="m165.75528,109.957672l28.220001,0l2.76001,-23l-33.73999,0l2.759979,23zm2.330017,-14.120003l1.199982,10c0.034683,0.263054 -0.03801,0.529007 -0.201691,0.737854c-0.163696,0.208832 -0.404556,0.342957 -0.668304,0.372147c-0.039429,0.008286 -0.079742,0.011642 -0.119995,0.010002c-0.504822,-0.001404 -0.929413,-0.37883 -0.98999,-0.880005l-1.199997,-9.999992c-0.072617,-0.36792 0.066711,-0.745522 0.360886,-0.978088c0.294189,-0.232582 0.693741,-0.281006 1.034973,-0.125458c0.341217,0.155548 0.566742,0.488937 0.584137,0.863541zm-1.830017,-6.869995c0.263062,-0.034683 0.529007,0.038025 0.737869,0.201706c0.208817,0.163681 0.342972,0.404564 0.372147,0.668289l0.23999,2c0.034668,0.263054 -0.038025,0.529007 -0.201721,0.737854c-0.163666,0.208824 -0.404541,0.342957 -0.668274,0.372147c-0.039429,0.008286 -0.079727,0.011642 -0.12001,0.010002c-0.504807,-0.001404 -0.929398,-0.37883 -0.98999,-0.879997l-0.23999,-2c-0.034683,-0.263062 0.03801,-0.529022 0.201691,-0.737854c0.163681,-0.208824 0.404556,-0.342972 0.668289,-0.372147z"/>
      <path stroke="null" id="Path" d="m193.86528,66.025665c-9.32399,0.590004 -18.67598,0.590004 -28,0l0,2.932007l28,0l0,-2.932007z"/>
     </g>
    </g>
   </g>
  </g>
  <g stroke="null" id="svg_89">
   <g stroke="null" transform="matrix(0.600506 0 0 0.600506 17.8571 99.7656)" stroke-width="0" id="svg_76"/>
   <g stroke="null" transform="matrix(0.600506 0 0 0.600506 17.8571 99.7656)" stroke-linejoin="round" stroke-linecap="round" id="svg_77"/>
   <g stroke="null" transform="matrix(0.600506 0 0 0.600506 17.8571 99.7656)" id="svg_88">
    <title id="svg_78" stroke="null"/>
    <desc id="svg_79" stroke="null"/>
    <g id="svg_87" fill-rule="evenodd" fill="none">
     <g stroke="null" id="svg_86" fill="#10297DE5">
      <path stroke="null" id="svg_80" fill-rule="nonzero" d="m87.84272,73.66507l24.179993,0l1.009995,-10l-26.199997,0l1.01001,10zm2.209991,-8c0.549438,-0.052216 1.037292,0.350609 1.090012,0.900002l0.409988,4c0.050171,0.550735 -0.35022,1.0401 -0.900009,1.099998l-0.099991,0c-0.514404,-0.000214 -0.945801,-0.388451 -1,-0.900009l-0.399994,-4c-0.050171,-0.550735 0.35022,-1.0401 0.899994,-1.099991z"/>
      <path stroke="null" id="svg_81" fill-rule="nonzero" d="m116.722694,26.66507l-33.579971,0l1,10l31.579971,0l1,-10zm-29.769989,8l-0.100006,0c-0.514389,-0.000198 -0.945786,-0.388451 -1,-0.900009l-0.399979,-4c-0.050171,-0.55072 0.350235,-1.0401 0.899979,-1.099991c0.549454,-0.052216 1.037292,0.350609 1.089996,0.900002l0.410004,4c0.050186,0.550735 -0.35022,1.0401 -0.899994,1.099998z"/>
      <polygon stroke="null" points="114.04572296142578,61.691070556640625 114.04671478271484,61.69007110595703 114.04671478271484,61.665069580078125 114.04572296142578,61.665069580078125 " id="svg_82"/>
      <polygon stroke="null" points="114.93270111083984,22.665069580078125 84.93270111083984,22.665069580078125 79.93270111083984,22.665069580078125 79.93270111083984,24.665069580078125 82.03270721435547,24.665069580078125 117.83271026611328,24.665069580078125 120.9336929321289,24.665069580078125 120.93270111083984,22.665069580078125 " id="svg_83"/>
      <path stroke="null" id="svg_84" fill-rule="nonzero" d="m85.822701,61.66507l28.220001,0l2.76001,-23l-33.73999,0l2.759979,23zm2.330017,-14.120003l1.199982,10c0.034683,0.263054 -0.03801,0.529007 -0.201691,0.737854c-0.163696,0.208839 -0.404556,0.342957 -0.668304,0.372147c-0.039429,0.008293 -0.079742,0.011642 -0.119995,0.010002c-0.504822,-0.001404 -0.929413,-0.37883 -0.98999,-0.880005l-1.199997,-10c-0.072617,-0.36792 0.066711,-0.745514 0.360886,-0.978081c0.294189,-0.23259 0.693741,-0.281006 1.034973,-0.125458c0.341217,0.155548 0.566742,0.488945 0.584137,0.863541zm-1.830017,-6.870003c0.263062,-0.034676 0.529007,0.038033 0.737869,0.201714c0.208817,0.163681 0.342972,0.404556 0.372147,0.668289l0.23999,2c0.034668,0.263054 -0.038025,0.529007 -0.201721,0.737854c-0.163666,0.208824 -0.404541,0.342957 -0.668274,0.372147c-0.039429,0.008293 -0.079727,0.011642 -0.12001,0.010002c-0.504807,-0.001404 -0.929398,-0.37883 -0.98999,-0.880005l-0.23999,-2c-0.034683,-0.263054 0.03801,-0.529015 0.201691,-0.737846c0.163681,-0.208824 0.404556,-0.342972 0.668289,-0.372154z"/>
      <path stroke="null" id="svg_85" d="m113.932701,17.73307c-9.32399,0.589996 -18.67598,0.589996 -28,0l0,2.931999l28,0l0,-2.931999z"/>
     </g>
    </g>
   </g>
  </g>
  <g stroke="null" id="svg_103">
   <g stroke="null" transform="matrix(0.600506 0 0 0.600506 17.8571 99.7656)" stroke-width="0" id="svg_90"/>
   <g stroke="null" transform="matrix(0.600506 0 0 0.600506 17.8571 99.7656)" stroke-linejoin="round" stroke-linecap="round" id="svg_91"/>
   <g stroke="null" transform="matrix(0.600506 0 0 0.600506 17.8571 99.7656)" id="svg_102">
    <title id="svg_92" stroke="null"/>
    <desc id="svg_93" stroke="null"/>
    <g id="svg_101" fill-rule="evenodd" fill="none">
     <g stroke="null" id="svg_100" fill="#10297DE5">
      <path stroke="null" id="svg_94" fill-rule="nonzero" d="m549.120361,30.368256l24.179932,0l1.01001,-10l-26.200012,0l1.010071,10zm2.209961,-8c0.549438,-0.052216 1.037292,0.350609 1.090027,0.900002l0.409973,4c0.050171,0.550735 -0.35022,1.0401 -0.900024,1.099998l-0.099976,0c-0.514404,-0.000214 -0.945801,-0.388451 -1,-0.900009l-0.400024,-4c-0.050171,-0.550735 0.35022,-1.0401 0.900024,-1.099991z"/>
      <path stroke="null" id="svg_95" fill-rule="nonzero" d="m578.000305,-16.631744l-33.579956,0l1,10l31.579956,0l1,-10zm-29.769958,8l-0.100037,0c-0.514404,-0.000198 -0.945801,-0.388451 -1,-0.900009l-0.399963,-4c-0.050171,-0.55072 0.35022,-1.0401 0.899963,-1.099991c0.549438,-0.052216 1.037292,0.350609 1.090027,0.900002l0.409973,4c0.050171,0.550735 -0.35022,1.0401 -0.899963,1.099998z"/>
      <polygon stroke="null" points="575.3233337402344,18.394256591796875 575.3243255615234,18.39325714111328 575.3243255615234,18.368255615234375 575.3233337402344,18.368255615234375 " id="svg_96"/>
      <polygon stroke="null" points="576.2103118896484,-20.631744384765625 546.2103118896484,-20.631744384765625 541.2103118896484,-20.631744384765625 541.2103118896484,-18.631744384765625 543.3103179931641,-18.631744384765625 579.1103210449219,-18.631744384765625 582.2113037109375,-18.631744384765625 582.2103118896484,-20.631744384765625 " id="svg_97"/>
      <path stroke="null" id="svg_98" fill-rule="nonzero" d="m547.100281,18.368256l28.220032,0l2.76001,-23l-33.73999,0l2.759949,23zm2.330017,-14.120003l1.200012,10c0.034668,0.263054 -0.038025,0.529007 -0.20166,0.737854c-0.163757,0.208839 -0.404602,0.342957 -0.668335,0.372147c-0.039429,0.008293 -0.079773,0.011642 -0.119995,0.010002c-0.504822,-0.001404 -0.929443,-0.37883 -0.98999,-0.880005l-1.200012,-10c-0.072632,-0.36792 0.066711,-0.745514 0.360901,-0.978081c0.294189,-0.23259 0.693726,-0.281006 1.034973,-0.125458c0.341248,0.155548 0.566772,0.488945 0.584106,0.863541zm-1.829956,-6.870003c0.263062,-0.034676 0.528992,0.038033 0.737854,0.201714c0.208801,0.163681 0.342957,0.404556 0.372131,0.668289l0.23999,2c0.034668,0.263054 -0.038025,0.529007 -0.201721,0.737854c-0.163696,0.208824 -0.404541,0.342957 -0.668274,0.372147c-0.039429,0.008293 -0.079712,0.011642 -0.119995,0.010002c-0.504822,-0.001404 -0.929443,-0.37883 -0.98999,-0.880005l-0.23999,-2c-0.034668,-0.263054 0.037964,-0.529015 0.20166,-0.737846c0.163696,-0.208824 0.404541,-0.342972 0.668335,-0.372154z"/>
      <path stroke="null" id="svg_99" d="m575.210327,-25.563744c-9.323975,0.589996 -18.676025,0.589996 -28,0l0,2.931999l28,0l0,-2.931999z"/>
     </g>
    </g>
   </g>
  </g>
  <g stroke="null" id="svg_117">
   <g stroke="null" transform="matrix(0.600506 0 0 0.600506 17.8571 99.7656)" stroke-width="0" id="svg_104"/>
   <g stroke="null" transform="matrix(0.600506 0 0 0.600506 17.8571 99.7656)" stroke-linejoin="round" stroke-linecap="round" id="svg_105"/>
   <g stroke="null" transform="matrix(0.600506 0 0 0.600506 17.8571 99.7656)" id="svg_116">
    <title id="svg_106" stroke="null"/>
    <desc id="svg_107" stroke="null"/>
    <g id="svg_115" fill-rule="evenodd" fill="none">
     <g stroke="null" id="svg_114" fill="#10297DE5">
      <path stroke="null" id="svg_108" fill-rule="nonzero" d="m429.221436,70.334549l24.179993,0l1.009979,-10.000004l-26.199982,0l1.01001,10.000004zm2.209991,-8.000004c0.549438,-0.052216 1.037292,0.350609 1.089996,0.900002l0.410004,3.999996c0.050171,0.550735 -0.35022,1.0401 -0.899994,1.100006l-0.100006,0c-0.514404,-0.000214 -0.945801,-0.388458 -1,-0.900009l-0.399994,-4.000004c-0.050171,-0.550735 0.35022,-1.0401 0.899994,-1.099991z"/>
      <path stroke="null" id="svg_109" fill-rule="nonzero" d="m458.10141,23.334545l-33.579987,0l1,10l31.579987,0l1,-10zm-29.769989,8l-0.100006,0c-0.514374,-0.000198 -0.94577,-0.388451 -1,-0.900009l-0.399963,-4c-0.050201,-0.55072 0.35022,-1.0401 0.899963,-1.099991c0.549469,-0.052216 1.037292,0.350609 1.089996,0.900002l0.410004,4c0.050201,0.550735 -0.35022,1.0401 -0.899994,1.099998z"/>
      <polygon stroke="null" points="455.4244384765625,58.36054611206055 455.42543029785156,58.35954666137695 455.42543029785156,58.33454513549805 455.4244384765625,58.33454513549805 " id="svg_110"/>
      <polygon stroke="null" points="456.31141662597656,19.334545135498047 426.31141662597656,19.334545135498047 421.31141662597656,19.334545135498047 421.31141662597656,21.334545135498047 423.4114227294922,21.334545135498047 459.21142578125,21.334545135498047 462.3124084472656,21.334545135498047 462.31141662597656,19.334545135498047 " id="svg_111"/>
      <path stroke="null" id="svg_112" fill-rule="nonzero" d="m427.201416,58.334545l28.220001,0l2.76001,-23l-33.73999,0l2.759979,23zm2.330017,-14.120003l1.199982,10c0.034668,0.263054 -0.037994,0.529007 -0.201691,0.737854c-0.163696,0.208839 -0.404541,0.342957 -0.668304,0.372147c-0.039429,0.008293 -0.079742,0.011642 -0.119995,0.010002c-0.504822,-0.001404 -0.929413,-0.37883 -0.98999,-0.880005l-1.200012,-10c-0.072601,-0.36792 0.066742,-0.745514 0.360901,-0.978081c0.294189,-0.23259 0.693756,-0.281006 1.034973,-0.125458c0.341217,0.155548 0.566742,0.488945 0.584137,0.863541zm-1.830017,-6.870003c0.263062,-0.034676 0.528992,0.038033 0.737854,0.201714c0.208832,0.163681 0.342987,0.404556 0.372162,0.668289l0.23999,2c0.034668,0.263054 -0.038025,0.529007 -0.201721,0.737854c-0.163666,0.208824 -0.404541,0.342957 -0.668274,0.372147c-0.039429,0.008293 -0.079712,0.011642 -0.120026,0.010002c-0.504791,-0.001404 -0.929382,-0.37883 -0.98999,-0.880005l-0.23996,-2c-0.034698,-0.263054 0.037994,-0.529015 0.201691,-0.737846c0.163666,-0.208824 0.404541,-0.342972 0.668274,-0.372154z"/>
      <path stroke="null" id="svg_113" d="m455.311401,14.402546c-9.323975,0.589996 -18.675964,0.589996 -28,0l0,2.931999l28,0l0,-2.931999z"/>
     </g>
    </g>
   </g>
  </g>
  <g stroke="null" id="svg_131">
   <g stroke="null" transform="matrix(0.600506 0 0 0.600506 17.8571 99.7656)" stroke-width="0" id="svg_118"/>
   <g stroke="null" transform="matrix(0.600506 0 0 0.600506 17.8571 99.7656)" stroke-linejoin="round" stroke-linecap="round" id="svg_119"/>
   <g stroke="null" transform="matrix(0.600506 0 0 0.600506 17.8571 99.7656)" id="svg_130">
    <title id="svg_120" stroke="null"/>
    <desc id="svg_121" stroke="null"/>
    <g id="svg_129" fill-rule="evenodd" fill="none">
     <g stroke="null" id="svg_128" fill="#10297DE5">
      <path stroke="null" id="svg_122" fill-rule="nonzero" d="m687.337036,186.902893l24.180054,0l1.009949,-10l-26.199951,0l1.009949,10zm2.210022,-8c0.549438,-0.052216 1.037292,0.350616 1.090027,0.899994l0.409973,4c0.050171,0.550751 -0.35022,1.0401 -0.900024,1.100006l-0.099976,0c-0.514404,-0.000214 -0.945801,-0.388443 -1,-0.900009l-0.399963,-4c-0.050171,-0.550735 0.35022,-1.0401 0.899963,-1.099991z"/>
      <path stroke="null" id="svg_123" fill-rule="nonzero" d="m716.217041,139.902893l-33.579956,0l1,10l31.579956,0l1,-10zm-29.77002,8l-0.099976,0c-0.514404,-0.000198 -0.945801,-0.388443 -1,-0.900009l-0.399963,-4c-0.050171,-0.55072 0.35022,-1.0401 0.899963,-1.099991c0.549438,-0.052216 1.037292,0.350616 1.090027,0.899994l0.409973,4c0.050171,0.550751 -0.35022,1.0401 -0.900024,1.100006z"/>
      <polygon stroke="null" points="713.5400695800781,174.92889404296875 713.5410614013672,174.92789459228516 713.5410614013672,174.90289306640625 713.5400695800781,174.90289306640625 " id="svg_124"/>
      <polygon stroke="null" points="714.4270477294922,135.90289306640625 684.4270477294922,135.90289306640625 679.4270477294922,135.90289306640625 679.4270477294922,137.90289306640625 681.5270538330078,137.90289306640625 717.3270568847656,137.90289306640625 720.4280395507812,137.90289306640625 720.4270477294922,135.90289306640625 " id="svg_125"/>
      <path stroke="null" id="svg_126" fill-rule="nonzero" d="m685.317017,174.902893l28.220032,0l2.76001,-23l-33.73999,0l2.759949,23zm2.330078,-14.12001l1.199951,10c0.034668,0.263062 -0.038025,0.529007 -0.20166,0.737854c-0.163696,0.208847 -0.404602,0.342972 -0.668335,0.372147c-0.039429,0.008301 -0.079712,0.011658 -0.119995,0.01001c-0.504822,-0.001404 -0.929443,-0.37883 -0.98999,-0.880005l-1.200012,-10c-0.072571,-0.36792 0.066711,-0.745514 0.360901,-0.978088c0.294189,-0.23259 0.693726,-0.281006 1.034973,-0.125458c0.341248,0.155563 0.566711,0.488953 0.584167,0.863541zm-1.830078,-6.869995c0.263123,-0.034683 0.529053,0.03804 0.737915,0.201706c0.208801,0.163681 0.342957,0.404572 0.372131,0.668289l0.23999,2c0.034668,0.263062 -0.038025,0.529007 -0.201721,0.737854c-0.163696,0.208832 -0.404541,0.342972 -0.668274,0.372147c-0.039429,0.008301 -0.079712,0.011658 -0.119995,0.01001c-0.504822,-0.001404 -0.929382,-0.37883 -0.98999,-0.880005l-0.23999,-2c-0.034729,-0.263062 0.038025,-0.529007 0.20166,-0.737854c0.163696,-0.208817 0.404602,-0.342957 0.668274,-0.372147z"/>
      <path stroke="null" id="svg_127" d="m713.427063,130.970886c-9.324036,0.590012 -18.675964,0.590012 -28,0l0,2.932007l28,0l0,-2.932007z"/>
     </g>
    </g>
   </g>
  </g>
  <g stroke="null" id="svg_145">
   <g stroke="null" transform="matrix(0.600506 0 0 0.600506 17.8571 99.7656)" stroke-width="0" id="svg_132"/>
   <g stroke="null" transform="matrix(0.600506 0 0 0.600506 17.8571 99.7656)" stroke-linejoin="round" stroke-linecap="round" id="svg_133"/>
   <g stroke="null" transform="matrix(0.600506 0 0 0.600506 17.8571 99.7656)" id="svg_144">
    <title id="svg_134" stroke="null"/>
    <desc id="svg_135" stroke="null"/>
    <g id="svg_143" fill-rule="evenodd" fill="none">
     <g stroke="null" id="svg_142" fill="#10297DE5">
      <path stroke="null" id="svg_136" fill-rule="nonzero" d="m723.9729,116.961884l24.179993,0l1.009949,-10l-26.199951,0l1.01001,10zm2.209961,-8c0.549438,-0.052216 1.037292,0.350609 1.090027,0.900002l0.409973,4c0.050171,0.550735 -0.35022,1.0401 -0.900024,1.099998l-0.099976,0c-0.514404,-0.000214 -0.945801,-0.388451 -1,-0.900009l-0.400024,-4c-0.05011,-0.550735 0.35022,-1.0401 0.900024,-1.099991z"/>
      <path stroke="null" id="svg_137" fill-rule="nonzero" d="m752.852844,69.961884l-33.579956,0l1,10l31.579956,0l1,-10zm-29.769958,8l-0.100037,0c-0.514404,-0.000198 -0.945801,-0.388451 -1,-0.900009l-0.399963,-4c-0.050171,-0.55072 0.35022,-1.0401 0.899963,-1.099991c0.549438,-0.052216 1.037292,0.350609 1.090027,0.900002l0.409973,4c0.050171,0.550735 -0.35022,1.0401 -0.899963,1.099998z"/>
      <polygon stroke="null" points="750.1758728027344,104.98788690567017 750.1768646240234,104.98688745498657 750.1768646240234,104.96188592910767 750.1758728027344,104.96188592910767 " id="svg_138"/>
      <polygon stroke="null" points="751.0628509521484,65.96188592910767 721.0628509521484,65.96188592910767 716.0628509521484,65.96188592910767 716.0628509521484,67.96188592910767 718.1628570556641,67.96188592910767 753.9628601074219,67.96188592910767 757.0638427734375,67.96188592910767 757.0628509521484,65.96188592910767 " id="svg_139"/>
      <path stroke="null" id="svg_140" fill-rule="nonzero" d="m721.952881,104.961884l28.219971,0l2.76001,-23l-33.73999,0l2.76001,23zm2.329956,-14.120003l1.200012,10c0.034668,0.263054 -0.038025,0.529007 -0.201721,0.737854c-0.163696,0.208839 -0.404541,0.342957 -0.668274,0.372147c-0.039429,0.008293 -0.079773,0.011642 -0.119995,0.010002c-0.504822,-0.001404 -0.929382,-0.37883 -0.98999,-0.880005l-1.200012,-10c-0.072632,-0.36792 0.066711,-0.745514 0.360901,-0.978081c0.294189,-0.23259 0.693726,-0.281006 1.034973,-0.125458c0.341187,0.155548 0.566711,0.488945 0.584106,0.863541zm-1.829956,-6.870003c0.263,-0.034676 0.528992,0.038033 0.737854,0.201714c0.208801,0.163681 0.342957,0.404556 0.372131,0.668289l0.23999,2c0.034668,0.263054 -0.038025,0.529007 -0.201721,0.737854c-0.163635,0.208824 -0.404541,0.342957 -0.668274,0.372147c-0.039429,0.008293 -0.079712,0.011642 -0.119995,0.010002c-0.504822,-0.001404 -0.929443,-0.37883 -0.98999,-0.880005l-0.23999,-2c-0.034668,-0.263054 0.037964,-0.529015 0.20166,-0.737846c0.163696,-0.208824 0.404602,-0.342972 0.668335,-0.372154z"/>
      <path stroke="null" id="svg_141" d="m750.062866,61.029888c-9.323975,0.589996 -18.675964,0.589996 -28,0l0,2.931999l28,0l0,-2.931999z"/>
     </g>
    </g>
   </g>
  </g>
  <g stroke="null" id="svg_159">
   <g stroke="null" transform="matrix(0.600506 0 0 0.600506 17.8571 99.7656)" stroke-width="0" id="svg_146"/>
   <g stroke="null" transform="matrix(0.600506 0 0 0.600506 17.8571 99.7656)" stroke-linejoin="round" stroke-linecap="round" id="svg_147"/>
   <g stroke="null" transform="matrix(0.600506 0 0 0.600506 17.8571 99.7656)" id="svg_158">
    <title id="svg_148" stroke="null"/>
    <desc id="svg_149" stroke="null"/>
    <g id="svg_157" fill-rule="evenodd" fill="none">
     <g stroke="null" id="svg_156" fill="#10297DE5">
      <path stroke="null" id="svg_150" fill-rule="nonzero" d="m482.509827,298.475464l24.179993,0l1.01001,-10l-26.200012,0l1.01001,10zm2.209991,-8c0.549438,-0.052216 1.037292,0.350586 1.090027,0.899994l0.409973,4c0.050171,0.55072 -0.35022,1.0401 -0.899994,1.100006l-0.100006,0c-0.514404,-0.000214 -0.945801,-0.388458 -1,-0.900024l-0.399994,-4c-0.050171,-0.55072 0.35022,-1.0401 0.899994,-1.099976z"/>
      <path stroke="null" id="svg_151" fill-rule="nonzero" d="m511.389801,251.475449l-33.579956,0l1,10.000015l31.579956,0l1,-10.000015zm-29.769989,8.000015l-0.100006,0c-0.514374,-0.000214 -0.94577,-0.388458 -1,-0.900024l-0.399994,-4c-0.050171,-0.55072 0.35025,-1.0401 0.899994,-1.099991c0.549469,-0.052216 1.037292,0.350601 1.089996,0.900009l0.410004,4c0.050201,0.55072 -0.35022,1.0401 -0.899994,1.100006z"/>
      <polygon stroke="null" points="508.71282958984375,286.50144958496094 508.7138214111328,286.50045013427734 508.7138214111328,286.47544860839844 508.71282958984375,286.47544860839844 " id="svg_152"/>
      <polygon stroke="null" points="509.5998077392578,247.47544860839844 479.5998077392578,247.47544860839844 474.5998077392578,247.47544860839844 474.5998077392578,249.47544860839844 476.69981384277344,249.47544860839844 512.4998168945312,249.47544860839844 515.6007995605469,249.47544860839844 515.5998077392578,247.47544860839844 " id="svg_153"/>
      <path stroke="null" id="svg_154" fill-rule="nonzero" d="m480.489807,286.475464l28.220001,0l2.76001,-23l-33.73999,0l2.759979,23zm2.330017,-14.120026l1.199982,10c0.034698,0.263062 -0.037994,0.529022 -0.201691,0.737854c-0.163696,0.208862 -0.404572,0.342957 -0.668304,0.372162c-0.039429,0.008301 -0.079742,0.011627 -0.119995,0.01001c-0.504822,-0.001404 -0.929413,-0.378845 -0.98999,-0.880005l-1.199982,-10c-0.072632,-0.36795 0.066711,-0.745544 0.36087,-0.978088c0.294189,-0.232605 0.693756,-0.281006 1.034973,-0.125458c0.341217,0.155548 0.566742,0.488922 0.584137,0.863525zm-1.830017,-6.869995c0.263062,-0.034668 0.528992,0.038025 0.737854,0.201721c0.208832,0.163666 0.342987,0.404541 0.372162,0.668274l0.23999,2c0.034668,0.263062 -0.038025,0.529022 -0.201721,0.737854c-0.163666,0.208832 -0.404541,0.342957 -0.668274,0.372162c-0.039429,0.008301 -0.079742,0.011627 -0.120026,0.01001c-0.504791,-0.001404 -0.929382,-0.378845 -0.98996,-0.880005l-0.240021,-2c-0.034668,-0.263062 0.038025,-0.529022 0.201721,-0.737854c0.163666,-0.208832 0.404541,-0.342987 0.668274,-0.372162z"/>
      <path stroke="null" id="svg_155" d="m508.599823,242.543457c-9.324005,0.589996 -18.675995,0.589996 -28,0l0,2.931992l28,0l0,-2.931992z"/>
     </g>
    </g>
   </g>
  </g>
 </g>
</svg>