<?xml version="1.0" standalone="no"?>
<!DOCTYPE svg PUBLIC "-//W3C//DTD SVG 20010904//EN"
 "http://www.w3.org/TR/2001/REC-SVG-20010904/DTD/svg10.dtd">
<svg version="1.0" xmlns="http://www.w3.org/2000/svg"
 width="1280.000000pt" height="731.000000pt" viewBox="0 0 1280.000000 731.000000"
 preserveAspectRatio="xMidYMid meet">
<metadata>
Created by potrace 1.15, written by Peter Selinger 2001-2017
</metadata>
<g transform="translate(0.000000,731.000000) scale(0.100000,-0.100000)"
fill="#e91e63" stroke="none">
<path d="M4683 6760 c-30 -20 -36 -21 -107 -9 -42 7 -78 10 -81 8 -3 -3 0 -20
6 -38 6 -18 8 -35 4 -39 -4 -4 -52 -7 -107 -7 -92 -1 -102 -2 -119 -23 -16
-20 -21 -21 -40 -11 -17 9 -38 9 -91 -1 -59 -10 -69 -15 -74 -36 -7 -28 -25
-30 -58 -9 -22 15 -24 14 -36 -14 -7 -17 -20 -32 -29 -35 -127 -37 -161 -49
-156 -57 4 -5 24 -9 46 -9 21 0 39 -2 39 -5 0 -3 -11 -22 -24 -43 -25 -39 -25
-40 -183 -82 -24 -6 -43 -15 -43 -19 0 -5 28 -12 63 -16 73 -9 114 -22 101
-34 -5 -5 -30 -16 -56 -26 -27 -10 -48 -21 -48 -25 0 -12 60 -34 94 -34 17 0
83 3 147 8 93 7 118 6 127 -5 43 -51 65 -84 107 -157 32 -56 50 -79 56 -71 6
10 11 10 24 -1 30 -25 37 -48 21 -77 -13 -26 -13 -28 15 -45 33 -20 35 -37 14
-99 -13 -35 -13 -48 -4 -67 11 -19 9 -29 -11 -64 l-23 -41 21 -17 c11 -10 24
-30 28 -46 19 -81 77 -148 159 -185 28 -13 53 -25 56 -26 3 -2 18 8 32 21 20
19 27 35 27 64 0 48 42 133 83 168 18 15 52 36 77 46 81 35 90 41 115 83 29
50 70 72 158 86 129 19 237 47 237 59 0 6 -13 10 -29 10 -46 0 -91 12 -91 23
0 20 53 67 75 67 12 0 30 -7 41 -15 24 -18 34 -19 34 -1 0 12 -59 43 -117 60
-17 5 -53 67 -53 90 0 2 15 7 34 10 19 4 39 13 46 21 17 20 33 19 80 -5 49
-25 53 -25 45 0 -5 15 1 23 32 36 25 11 33 18 23 21 -26 9 -51 36 -72 76 -11
22 -18 40 -16 41 2 2 18 8 36 15 36 15 35 13 18 61 -13 34 -12 37 20 73 39 43
42 53 13 62 -36 12 -15 27 96 70 60 23 111 47 113 53 5 15 9 15 -158 -3 -126
-14 -143 -14 -169 0 -41 20 -54 19 -189 -14 -135 -34 -183 -40 -189 -25 -9 27
159 93 302 118 54 10 68 14 43 15 -27 1 -41 8 -55 27 l-19 26 -153 -17 c-84
-9 -156 -14 -159 -11 -3 4 5 17 18 31 l23 25 -50 0 c-28 0 -63 2 -79 5 -20 4
-40 -1 -61 -15z"/>
<path d="M3303 6756 c-17 -8 -34 -24 -38 -35 -9 -28 -24 -35 -140 -61 -55 -12
-104 -26 -108 -30 -5 -4 6 -19 24 -34 24 -21 41 -26 73 -25 22 1 54 -4 69 -10
43 -17 80 -13 167 16 44 15 83 23 87 19 13 -13 -13 -40 -63 -66 -38 -20 -67
-26 -136 -28 -68 -3 -88 -7 -88 -18 0 -8 10 -18 23 -23 12 -5 45 -19 72 -31
l50 -22 -25 -20 c-38 -31 -106 -20 -140 22 -54 68 -107 116 -148 132 l-42 16
-55 -43 -56 -43 68 -22 c81 -27 93 -35 59 -44 -47 -12 -25 -56 27 -56 16 0 45
10 64 21 27 17 39 19 57 12 29 -14 86 -62 86 -74 0 -12 -57 -12 -65 1 -3 6
-13 10 -21 10 -12 0 -12 -4 -4 -21 8 -15 8 -24 0 -33 -14 -18 197 -42 255 -29
l40 9 -47 22 c-27 11 -48 25 -48 30 0 5 22 12 49 15 51 6 102 27 135 56 17 15
17 16 -15 21 -45 7 -45 20 0 52 32 23 49 28 93 27 46 -1 62 4 126 42 68 41 71
44 47 52 -14 5 -25 12 -25 16 0 4 51 29 113 56 61 27 114 50 117 53 11 8 -40
28 -130 50 -122 30 -454 42 -507 18z"/>
<path d="M7590 6563 c-8 -3 -26 -10 -39 -15 -24 -9 -23 -10 28 -39 51 -29 84
-33 46 -5 -13 9 -16 20 -11 39 6 27 3 30 -24 20z"/>
<path d="M7660 6538 c0 -14 50 -68 63 -68 6 0 2 9 -8 20 -17 18 -16 19 10 26
16 4 36 2 46 -5 21 -12 92 -15 103 -4 4 4 -21 15 -56 25 -73 21 -158 24 -158
6z"/>
<path d="M6771 6486 c-29 -31 -20 -46 26 -46 34 0 93 27 93 42 0 11 -45 28
-74 28 -12 0 -33 -11 -45 -24z"/>
<path d="M9148 6474 c-16 -8 -28 -18 -28 -22 0 -7 64 -29 173 -59 14 -5 17 2
17 43 l0 47 -23 -21 -23 -22 -24 25 c-27 28 -53 31 -92 9z"/>
<path d="M6439 6473 c-14 -3 -15 -9 -6 -36 5 -18 12 -38 14 -46 2 -9 12 -11
31 -7 59 14 102 18 102 11 0 -5 -7 -16 -16 -26 -9 -10 -18 -38 -20 -61 -2 -35
1 -46 17 -56 17 -11 24 -5 73 70 l53 82 -56 27 c-65 33 -80 35 -107 14 -30
-23 -54 -19 -54 10 0 25 -2 26 -31 18z"/>
<path d="M2527 6433 c-4 -3 29 -26 74 -50 45 -25 83 -42 85 -40 10 9 -39 57
-79 76 -45 22 -69 26 -80 14z"/>
<path d="M9389 6401 c-35 -36 -38 -56 -6 -47 12 4 43 12 70 18 26 6 47 14 47
18 0 6 -65 40 -76 40 -3 0 -19 -13 -35 -29z"/>
<path d="M9062 6314 c-37 -25 -25 -34 45 -34 l66 0 -23 25 c-27 29 -56 32 -88
9z"/>
<path d="M9432 6298 c-6 -7 -14 -29 -19 -48 -11 -41 -16 -43 -218 -65 -140
-16 -235 -34 -288 -54 l-29 -11 21 -34 c12 -18 21 -36 21 -38 0 -3 -42 -3 -92
-1 -118 5 -131 -2 -91 -54 50 -64 64 -89 57 -107 -9 -24 -32 -19 -48 12 -23
45 -54 67 -96 67 -51 0 -58 -9 -36 -45 l17 -30 -27 0 c-18 0 -40 13 -67 41
-38 38 -42 39 -54 23 -25 -35 -4 -134 29 -134 38 0 78 -31 108 -83 36 -63 37
-67 5 -67 -19 0 -32 11 -53 45 -15 25 -30 45 -34 45 -4 0 -22 -19 -40 -42 -94
-118 -123 -131 -174 -77 l-29 32 52 -6 52 -6 12 37 c14 40 14 212 1 272 -7 32
-11 35 -42 35 -31 0 -39 -6 -78 -63 l-44 -62 31 -36 c40 -45 42 -84 4 -84 -15
0 -46 9 -70 21 -57 27 -125 28 -161 2 -28 -21 -92 -36 -92 -22 0 5 -19 -1 -42
-11 -47 -22 -84 -25 -93 -10 -12 19 -45 10 -135 -35 -53 -27 -103 -45 -123
-45 -32 0 -34 2 -29 27 3 18 -1 30 -13 40 -31 22 -35 16 -33 -44 l3 -57 -54
-15 c-43 -12 -58 -21 -73 -48 -16 -27 -26 -33 -53 -33 -27 0 -34 -4 -37 -22
-4 -29 -42 -27 -76 5 -26 24 -95 137 -89 144 3 2 35 -3 71 -12 101 -23 140
-20 177 13 l31 28 -142 67 c-129 62 -147 67 -186 61 -41 -6 -45 -4 -61 24 -15
27 -25 32 -78 39 -76 11 -117 2 -227 -49 -65 -30 -93 -49 -108 -73 -11 -18
-55 -64 -98 -101 -101 -90 -101 -91 -102 -146 0 -44 -2 -48 -27 -54 -67 -14
-145 -75 -145 -114 -1 -41 14 -124 25 -137 15 -20 31 -16 86 22 52 34 52 34
60 12 40 -103 65 -163 71 -170 4 -4 28 2 55 13 26 11 45 23 42 26 -2 3 11 31
30 62 27 45 33 64 29 92 -3 19 -8 59 -12 87 l-7 53 72 68 c39 38 71 76 71 84
0 31 27 47 68 41 20 -3 39 -7 40 -9 12 -9 -15 -72 -44 -103 -44 -49 -57 -86
-49 -139 l6 -44 107 7 c106 7 107 7 131 -19 17 -18 20 -26 10 -26 -23 -1 -152
-20 -171 -26 -20 -6 -24 -44 -7 -61 6 -6 7 -22 3 -37 -5 -23 -11 -26 -28 -21
-53 17 -61 13 -67 -39 -7 -62 -34 -86 -96 -86 -24 0 -61 -9 -83 -20 -42 -22
-85 -26 -95 -10 -3 6 -26 10 -50 10 -56 0 -80 29 -69 84 4 22 2 36 -4 36 -5 0
-13 -32 -17 -70 -7 -65 -9 -71 -34 -76 -46 -12 -80 -33 -134 -87 -29 -29 -98
-81 -155 -116 -56 -35 -102 -66 -102 -70 0 -3 9 -12 20 -19 54 -33 78 -154 39
-193 -19 -19 -28 -20 -119 -14 -94 7 -98 7 -110 -14 -6 -13 -10 -39 -9 -59 1
-20 -1 -58 -5 -83 -13 -81 28 -119 131 -119 71 0 123 24 142 65 7 17 28 46 46
65 18 19 45 55 60 78 31 51 109 92 188 100 45 4 51 2 90 -35 74 -69 188 -165
191 -162 11 12 16 49 7 49 -17 0 -151 173 -151 196 0 12 7 27 15 34 13 11 31
-1 113 -77 74 -67 105 -104 129 -152 41 -81 52 -93 74 -88 10 3 24 -1 30 -9
10 -12 7 -20 -11 -39 -27 -29 -13 -33 21 -6 l23 19 -19 41 c-18 41 -18 42 1
62 13 12 40 22 75 25 63 7 79 23 79 78 0 53 32 116 81 160 50 46 74 46 95 3
19 -40 54 -67 54 -41 0 8 -4 23 -10 33 -8 16 -3 21 35 35 24 10 55 16 67 14
23 -3 24 -9 12 -59 -5 -22 3 -35 55 -86 104 -102 78 -135 -88 -113 -120 16
-168 10 -260 -31 -70 -31 -71 -32 -71 -70 0 -92 38 -113 194 -108 l101 4 -2
-27 c-3 -50 -45 -188 -65 -213 -16 -21 -28 -25 -68 -25 -82 0 -197 20 -266 46
-37 14 -75 22 -85 19 -11 -4 -28 -24 -39 -44 -10 -21 -27 -42 -37 -46 -20 -7
-251 106 -280 137 -12 13 -14 29 -9 64 9 71 -3 84 -78 84 -76 0 -219 -23 -301
-50 -33 -10 -85 -22 -115 -25 -61 -8 -75 -17 -131 -88 -25 -32 -39 -59 -39
-78 0 -48 -23 -89 -104 -182 -114 -132 -126 -161 -138 -336 -5 -80 -10 -157
-11 -171 -1 -43 149 -305 201 -350 67 -59 88 -62 249 -34 241 42 239 42 279 3
29 -28 42 -33 77 -32 71 2 77 -11 77 -154 l0 -123 66 -127 c83 -160 88 -195
48 -320 -34 -107 -36 -181 -4 -242 12 -24 28 -82 36 -129 18 -109 56 -226 102
-317 21 -41 37 -92 41 -124 8 -73 18 -78 128 -62 110 15 191 51 242 106 50 55
66 85 92 182 16 60 29 85 54 109 43 39 51 72 34 141 -16 70 -7 89 76 153 85
66 105 99 105 172 0 33 -12 105 -26 161 -46 177 -31 218 148 418 90 101 144
176 173 245 25 58 65 177 62 181 -2 2 -45 -5 -94 -15 -126 -26 -131 -23 -232
128 -103 154 -135 217 -160 318 -11 46 -42 123 -71 177 -27 53 -50 107 -50
120 0 21 3 23 30 15 16 -5 40 -17 54 -27 27 -20 66 -82 66 -105 0 -8 18 -49
41 -92 22 -42 46 -95 54 -116 8 -22 25 -55 38 -73 41 -54 58 -96 71 -171 10
-61 15 -71 33 -74 33 -5 328 149 391 204 52 45 102 117 102 146 0 8 -28 40
-63 70 l-63 56 -40 -24 c-47 -28 -66 -30 -87 -6 -21 23 -117 209 -117 227 0 8
10 19 21 26 29 15 60 -2 95 -52 28 -41 94 -79 137 -79 15 0 54 -13 87 -30 41
-21 74 -30 107 -30 128 0 293 -83 293 -146 0 -24 1 -24 30 -9 46 24 50 20 50
-44 0 -114 45 -272 121 -423 22 -43 41 -78 43 -78 14 0 48 105 60 185 9 60 22
105 34 122 11 16 69 76 129 134 101 100 112 107 167 120 l58 13 29 -35 c45
-53 80 -132 82 -183 1 -25 4 -46 7 -46 3 0 24 11 47 24 50 29 42 41 74 -128
20 -111 22 -117 34 -90 18 42 39 56 82 52 36 -3 40 -7 78 -75 22 -40 42 -72
45 -72 3 0 30 22 60 48 52 46 55 52 54 93 -1 32 -16 76 -52 153 -29 59 -52
117 -52 129 0 36 59 85 100 84 45 -1 230 69 274 104 19 15 58 66 86 113 l52
86 -11 77 c-5 43 -6 78 -1 80 5 2 -2 27 -16 55 -31 67 -30 79 6 121 34 38 27
46 -35 46 -18 0 -38 7 -45 14 -23 29 -7 60 54 100 l59 39 18 -21 c11 -14 28
-22 49 -22 46 0 73 -34 100 -128 24 -83 39 -99 68 -70 18 18 15 48 -13 123
l-25 67 26 31 c15 18 49 56 76 86 47 51 52 55 93 52 l43 -2 60 83 c101 141
142 243 142 358 0 46 -27 74 -63 65 -28 -8 -72 12 -102 45 l-20 22 89 84 c49
46 114 99 145 117 56 33 57 33 181 31 69 -1 142 -5 162 -9 34 -7 40 -5 65 25
44 51 140 110 180 110 33 0 34 -1 28 -31 l-7 -31 31 16 c17 9 38 28 47 42 20
29 50 48 64 39 22 -13 -38 -89 -142 -181 -113 -99 -129 -121 -148 -196 -13
-50 0 -140 23 -173 12 -15 18 -9 60 52 26 37 64 90 85 118 34 46 37 54 37 120
0 38 6 80 12 91 7 12 41 34 77 49 52 22 73 26 113 21 78 -9 80 -9 129 25 61
41 134 69 184 69 21 0 42 5 45 10 4 6 -17 37 -45 70 -51 59 -52 60 -28 69 12
5 46 19 73 31 66 28 122 21 193 -26 30 -19 57 -34 62 -32 12 5 102 89 98 93
-2 1 -23 13 -47 25 -42 21 -45 21 -57 5 -8 -10 -15 -23 -18 -29 -3 -6 -10 -3
-17 8 -30 48 -96 108 -145 132 -36 18 -101 34 -197 50 -78 13 -145 24 -148 24
-3 0 -4 -13 -1 -28 6 -43 -18 -58 -60 -36 -21 11 -72 20 -143 25 -60 4 -113 8
-117 8 -4 1 -26 20 -48 42 l-41 42 -70 -6 c-102 -9 -171 8 -209 49 -33 37 -52
41 -90 19 -14 -8 -35 -14 -48 -15 -18 0 -22 4 -17 19 7 22 -17 31 -85 31 -40
0 -51 -5 -85 -40 l-39 -40 -92 0 c-61 0 -104 -5 -130 -16 -32 -13 -42 -14 -59
-3 -31 19 -115 91 -115 99 0 4 12 12 27 19 l26 12 -22 16 c-19 13 -37 14 -95
8 -95 -10 -192 -10 -299 0 -88 8 -89 8 -105 42 -9 19 -23 33 -34 33 -24 0 -23
-12 3 -28 28 -18 19 -25 -15 -13 -22 9 -26 8 -26 -9 0 -30 -39 -50 -97 -50
-94 0 -80 17 86 105 52 27 77 46 79 60 5 42 -12 49 -125 56 -136 8 -149 13
-144 57 1 7 -10 12 -27 12 -16 0 -34 -6 -40 -12z m-2347 -963 c32 -31 31 -43
-1 -51 -17 -4 -31 -1 -41 9 -10 10 -13 24 -9 41 8 32 20 33 51 1z m678 -739
c16 -13 15 -15 -12 -42 -43 -43 -45 -63 -14 -124 23 -44 34 -56 61 -62 36 -10
42 -24 12 -33 -18 -6 -19 -13 -13 -85 l6 -79 -27 -7 c-39 -9 -94 4 -106 26 -6
12 -8 46 -4 82 5 56 3 69 -21 112 -31 58 -43 133 -26 165 27 49 106 75 144 47z
m277 -55 c0 -9 -7 -27 -16 -39 -32 -46 -54 -15 -30 43 14 32 18 35 31 25 8 -7
15 -20 15 -29z"/>
<path d="M2040 6253 c-62 -29 -72 -36 -57 -44 19 -11 57 -3 57 12 0 6 20 19
45 30 25 11 45 24 45 29 0 14 -7 12 -90 -27z"/>
<path d="M2875 6225 c22 -8 54 -30 70 -49 l30 -34 164 -10 c164 -10 220 -5
205 19 -5 9 -44 10 -134 6 -151 -6 -192 1 -234 42 -26 25 -43 33 -87 36 l-54
5 40 -15z"/>
<path d="M2390 6216 c0 -8 -8 -24 -18 -36 l-19 -23 -93 31 c-51 18 -96 30 -98
27 -2 -2 -2 -15 2 -29 5 -22 11 -25 48 -23 36 2 44 -2 55 -24 l12 -26 95 25
95 25 -36 33 c-40 38 -43 40 -43 20z"/>
<path d="M2630 6221 c0 -5 18 -24 41 -42 47 -37 70 -29 47 18 -10 22 -21 29
-51 31 -20 2 -37 -1 -37 -7z"/>
<path d="M8144 6214 c-50 -8 -127 -24 -170 -37 -77 -21 -80 -23 -105 -71 -15
-27 -25 -55 -23 -61 3 -6 -13 -24 -36 -40 -37 -25 -51 -45 -32 -45 4 0 18 -16
31 -35 16 -24 31 -35 48 -35 19 0 23 4 19 18 -19 62 -18 71 12 114 66 96 97
115 292 176 106 33 98 37 -36 16z"/>
<path d="M10615 6189 c-10 -32 13 -45 74 -41 63 5 68 24 9 41 -24 7 -51 14
-60 17 -11 3 -19 -3 -23 -17z"/>
<path d="M1952 6082 c-11 -11 -27 -40 -37 -66 -17 -44 -17 -47 0 -66 10 -11
27 -20 37 -20 11 0 60 28 110 62 102 71 102 82 -1 93 -31 4 -64 9 -73 11 -9 3
-26 -4 -36 -14z"/>
<path d="M2888 6069 c-18 -10 -25 -68 -11 -83 7 -7 93 72 93 86 0 11 -62 9
-82 -3z"/>
<path d="M2712 6053 c-11 -10 -27 -30 -36 -44 -16 -26 -16 -28 10 -48 29 -23
64 -27 95 -10 19 10 19 12 5 34 -9 14 -16 38 -16 55 0 35 -25 41 -58 13z"/>
<path d="M3089 6037 c-32 -17 -64 -76 -56 -108 16 -62 57 -78 204 -79 87 0
195 -19 262 -46 47 -19 84 -58 102 -109 8 -20 20 -35 29 -35 9 0 25 -6 35 -14
18 -13 18 -14 -2 -25 -16 -8 -30 -8 -54 1 -28 9 -34 8 -46 -7 -7 -11 -13 -27
-13 -37 0 -10 -7 -18 -15 -18 -30 0 -115 -22 -115 -30 0 -4 28 -11 62 -15 85
-10 117 -23 225 -88 l93 -56 20 39 c27 53 26 60 -19 116 -48 61 -57 87 -36
108 22 22 26 21 78 -19 25 -19 49 -35 54 -35 4 0 19 16 32 36 21 30 22 37 10
45 -18 12 -148 74 -173 83 -15 5 -17 13 -12 45 6 38 5 39 -40 61 -26 12 -69
30 -97 41 -28 11 -68 36 -89 55 -41 37 -80 44 -112 19 -51 -38 -146 5 -132 60
6 23 4 24 -26 18 -39 -7 -46 -16 -53 -63 -3 -19 -9 -48 -13 -65 l-8 -29 -22
22 c-22 22 -31 82 -12 82 6 0 10 -5 10 -12 0 -6 2 -9 5 -6 10 9 -14 57 -33 67
-13 7 -26 6 -43 -2z"/>
<path d="M2449 5995 c-18 -25 -34 -45 -37 -45 -2 0 -18 12 -35 26 -32 27 -46
28 -132 9 -27 -6 -32 -3 -40 20 l-10 27 -42 -31 c-70 -51 -51 -94 42 -97 64
-2 95 -11 95 -29 0 -9 -20 -15 -60 -20 -33 -4 -60 -10 -60 -14 0 -11 71 -48
105 -55 20 -4 54 2 102 19 83 29 119 31 169 10 34 -14 35 -14 46 11 11 23 9
28 -21 51 -37 29 -70 93 -71 136 0 38 -14 34 -51 -18z"/>
<path d="M2847 5902 c-22 -24 -22 -29 8 -64 28 -33 31 -52 12 -88 -11 -22 -20
-25 -72 -26 -33 -1 -96 -5 -140 -9 -78 -7 -84 -6 -143 24 -72 36 -87 39 -70
12 11 -18 5 -33 -43 -104 -4 -5 -23 2 -42 17 -25 20 -55 30 -104 37 -89 12
-91 13 -95 45 -3 25 -10 30 -73 47 -38 10 -110 22 -160 27 -49 5 -104 12 -120
15 -24 5 -48 -3 -117 -39 -48 -25 -91 -46 -97 -46 -5 0 -13 9 -16 20 -13 41
-25 19 -19 -35 10 -81 -7 -73 -72 33 -1 2 -72 21 -158 42 -177 44 -452 95
-509 94 -28 0 -77 -20 -175 -70 -75 -39 -137 -75 -139 -80 -1 -5 32 -31 75
-59 42 -27 77 -56 77 -64 0 -27 -31 -36 -74 -21 -32 10 -46 10 -70 0 -39 -16
-39 -24 -1 -62 32 -31 52 -33 133 -13 25 7 27 5 27 -22 0 -32 -25 -61 -75 -86
-17 -8 -38 -24 -48 -35 -16 -17 -17 -24 -7 -44 18 -33 62 -78 77 -78 8 0 28
-10 44 -22 24 -18 44 -23 90 -23 32 0 59 -1 59 -1 0 -1 -6 -17 -14 -35 -7 -19
-17 -45 -21 -58 l-7 -23 32 18 c44 26 104 93 130 146 37 73 58 89 89 69 11 -7
10 -13 -4 -35 -25 -38 -6 -54 26 -22 13 13 31 34 40 47 l15 22 78 -32 c42 -17
125 -45 184 -60 133 -35 161 -49 208 -105 21 -25 50 -50 66 -57 31 -13 52 -45
61 -95 11 -60 79 -158 170 -245 98 -94 107 -117 49 -134 l-34 -10 4 -165 c3
-155 5 -168 31 -221 31 -64 112 -174 154 -210 47 -40 71 -77 94 -147 36 -111
128 -271 169 -297 17 -11 12 2 -60 139 -67 127 -83 177 -60 191 19 12 72 -57
183 -235 70 -113 107 -183 107 -201 0 -15 10 -39 23 -53 34 -38 212 -123 287
-136 91 -17 126 -31 224 -95 61 -40 92 -67 105 -93 32 -61 107 -122 151 -122
15 0 35 7 46 15 18 13 17 14 -16 15 -74 0 -106 56 -95 163 8 76 1 85 -77 96
-30 4 -59 10 -66 15 -17 10 -15 49 8 136 11 41 20 76 20 78 0 1 -16 2 -35 2
-37 0 -85 -35 -85 -63 0 -7 -10 -23 -23 -35 -29 -27 -110 -30 -145 -6 -52 36
-75 139 -63 279 7 70 13 90 32 111 51 54 94 64 184 40 45 -12 51 -12 56 3 14
36 50 56 99 56 78 0 107 -29 161 -162 12 -29 28 -53 35 -53 17 0 18 -7 -6 92
-23 94 -25 150 -8 181 6 12 37 54 69 93 61 74 79 122 79 216 0 35 2 38 19 28
27 -14 25 -15 56 34 15 24 44 52 64 63 26 14 40 31 52 63 19 53 54 80 141 109
99 33 129 24 66 -20 -17 -13 -27 -24 -20 -27 13 -4 96 47 88 55 -3 3 -26 20
-52 37 -26 17 -54 41 -62 53 -13 21 -12 23 12 34 33 15 36 43 4 34 -44 -13
-112 -46 -130 -62 -35 -32 -20 14 19 58 50 55 79 68 202 90 170 30 194 39 205
78 13 47 -11 65 -76 56 -27 -3 -48 -2 -48 3 0 4 13 21 30 37 l30 29 -43 23
c-54 31 -70 51 -119 150 l-40 82 -50 -35 c-61 -42 -81 -42 -119 -5 -31 31 -35
51 -19 81 8 15 3 24 -28 48 -20 16 -52 34 -71 40 -45 16 -126 15 -138 0 -6 -7
-13 -51 -17 -97 -5 -66 -3 -96 10 -139 15 -47 16 -60 4 -101 -7 -25 -21 -85
-30 -132 -10 -48 -20 -91 -24 -97 -13 -22 -47 -20 -77 5 -40 34 -59 73 -59
121 0 22 -6 45 -14 51 -7 6 -53 25 -102 41 -101 34 -155 68 -184 116 -11 18
-34 37 -50 43 -17 5 -35 21 -41 34 -9 21 -4 36 40 115 57 100 93 136 150 152
61 16 68 34 26 59 -43 25 -38 41 13 41 57 0 66 -12 72 -82 6 -71 23 -85 59
-49 23 23 52 27 82 11 12 -7 19 -7 19 -1 0 16 -30 40 -79 65 -54 28 -89 63
-75 75 5 5 40 19 77 31 55 18 67 25 62 39 -11 26 -23 64 -29 94 -5 21 -12 27
-34 27 -24 0 -33 -9 -63 -60 -18 -33 -39 -60 -45 -60 -6 0 -23 27 -37 60 -15
33 -30 60 -35 60 -5 0 -19 -11 -32 -25 -26 -28 -40 -32 -40 -11 0 8 -11 28
-25 44 -14 17 -25 39 -25 50 0 19 -42 62 -60 62 -4 0 -14 -8 -23 -18z m296
-1236 c12 -14 34 -38 49 -55 15 -16 50 -38 77 -48 27 -10 50 -22 51 -26 2 -5
-7 -27 -20 -48 l-22 -40 -41 60 c-23 34 -45 61 -48 61 -3 0 -21 -38 -39 -85
-18 -46 -36 -82 -40 -80 -5 3 -11 23 -15 44 -7 43 20 112 52 130 22 12 16 15
-81 32 l-69 12 36 33 c44 41 79 44 110 10z m327 -183 c0 -10 -184 -113 -201
-113 -21 0 2 18 92 70 81 47 109 58 109 43z"/>
<path d="M2725 5809 c-9 -14 23 -49 45 -49 9 0 25 9 34 19 17 19 17 20 -21 30
-47 13 -50 13 -58 0z"/>
<path d="M5365 5596 c-27 -13 -59 -31 -70 -40 -20 -16 -20 -16 8 -41 47 -42
144 -28 222 31 18 14 19 17 5 42 -22 38 -95 42 -165 8z"/>
<path d="M5873 5188 c-52 -57 -52 -96 -2 -159 34 -43 37 -86 9 -122 l-20 -25
26 -17 c25 -16 25 -17 8 -36 -17 -19 -16 -19 35 -19 53 0 106 20 113 42 5 14
-42 99 -95 171 -31 43 -37 58 -32 85 5 28 3 32 -15 32 -22 0 -26 20 -10 51 14
25 8 24 -17 -3z"/>
<path d="M5752 5012 c-14 -9 -76 -141 -69 -148 6 -6 54 15 90 39 22 15 27 26
27 57 0 41 -24 66 -48 52z"/>
<path d="M10746 4944 c-9 -24 -7 -70 6 -140 8 -48 16 -64 28 -64 15 0 15 9 1
110 -14 106 -22 128 -35 94z"/>
<path d="M4087 4739 c-66 -54 -37 -108 44 -80 41 14 39 15 39 -14 0 -23 3 -25
28 -19 15 4 28 8 29 8 1 1 -2 18 -7 38 -8 29 -18 39 -51 52 -28 12 -39 21 -35
31 8 23 -6 18 -47 -16z"/>
<path d="M10720 4515 c-6 -15 -10 -30 -10 -34 0 -4 -9 -16 -20 -26 -23 -21
-26 -48 -7 -63 10 -8 25 -6 58 9 114 53 119 65 41 110 l-52 30 -10 -26z"/>
<path d="M10660 4274 c-19 -32 -37 -67 -40 -78 -3 -12 -19 -26 -35 -31 -17 -6
-59 -27 -95 -47 -36 -21 -89 -47 -118 -59 -59 -24 -60 -28 -34 -113 l18 -59
34 54 c26 41 42 55 63 57 30 4 36 26 10 41 -10 5 -15 13 -11 16 4 4 22 -2 40
-13 l33 -19 76 23 76 24 26 87 c32 103 33 123 9 152 l-17 22 -35 -57z"/>
<path d="M3221 3541 c-21 -13 6 -25 51 -22 44 2 88 -18 141 -65 38 -35 61 -41
87 -24 12 9 8 16 -24 45 -66 59 -208 96 -255 66z"/>
<path d="M3603 3399 c-13 -5 -23 -15 -23 -24 0 -9 9 -15 23 -14 23 0 106 16
96 18 -4 0 -22 7 -40 15 -22 9 -42 11 -56 5z"/>
<path d="M10027 3353 c-12 -21 -17 -68 -11 -99 5 -28 20 -46 68 -84 33 -26 63
-47 65 -44 2 2 -19 29 -48 59 -55 61 -59 71 -36 115 8 16 12 36 9 44 -6 16
-39 22 -47 9z"/>
<path d="M3521 3036 l-64 -64 -43 13 -43 13 31 -40 c27 -32 33 -49 36 -103 4
-61 2 -67 -49 -162 -50 -91 -53 -103 -52 -160 1 -35 -2 -63 -8 -63 -18 0 -9
-49 24 -127 19 -43 44 -109 57 -148 43 -130 95 -204 183 -259 72 -44 77 -86
52 -403 -17 -207 -35 -320 -65 -409 -33 -94 -40 -167 -24 -270 10 -73 11 -101
1 -140 -11 -46 -14 -49 -41 -46 l-29 3 46 -52 c44 -50 44 -52 26 -70 -13 -13
-19 -33 -19 -61 0 -24 -3 -52 -6 -63 -4 -15 7 -29 45 -58 l51 -37 14 22 c8 13
44 72 79 133 l65 109 -24 32 c-30 39 -30 55 1 92 42 51 66 115 59 160 -6 36
-4 41 17 47 13 4 46 27 72 51 28 25 67 49 90 55 66 18 97 37 97 61 0 12 -14
46 -31 76 -25 45 -27 54 -12 48 10 -4 42 -10 70 -13 51 -6 54 -4 87 30 52 55
122 201 131 271 4 33 9 65 12 72 12 33 172 134 212 134 52 0 104 124 119 287
9 85 14 99 71 207 34 64 61 129 61 145 0 21 -12 40 -50 75 -53 49 -85 66 -128
66 -50 0 -103 21 -141 56 -47 42 -73 43 -118 4 -37 -33 -45 -35 -74 -19 -19
10 -18 12 16 39 49 39 29 46 -28 8 -65 -42 -75 -28 -27 37 43 58 45 66 31 93
-6 9 -12 30 -16 45 -9 45 -45 73 -126 97 -68 22 -80 30 -153 104 l-80 81 -128
25 -129 26 -20 -38 c-11 -21 -24 -38 -29 -38 -16 0 -28 34 -23 63 3 15 1 27
-4 27 -5 0 -37 -29 -72 -64z"/>
<path d="M10137 2955 c-51 -18 -51 -18 -19 -41 50 -37 62 -37 77 -1 9 22 10
36 3 45 -13 15 -13 15 -61 -3z"/>
<path d="M9344 2866 c33 -97 83 -178 96 -156 8 13 -5 81 -22 114 -11 21 -99
136 -103 136 -2 0 11 -42 29 -94z"/>
<path d="M9770 2762 l-132 -107 5 -38 c10 -74 94 -147 168 -147 44 0 53 10 79
84 10 31 26 66 34 78 22 32 20 81 -4 103 -20 18 -20 19 -2 39 43 50 43 51 13
74 l-28 21 -133 -107z"/>
<path d="M9230 2805 c0 -3 13 -26 28 -52 16 -27 52 -91 81 -144 49 -90 132
-199 151 -199 4 0 15 21 24 46 l16 47 -44 39 c-25 21 -83 87 -131 146 -48 59
-95 110 -106 114 -10 4 -19 5 -19 3z"/>
<path d="M9983 2523 c4 -38 7 -83 7 -100 0 -18 5 -33 10 -33 6 0 10 24 10 54
0 73 16 80 42 17 12 -28 26 -51 30 -51 15 0 8 35 -17 79 -29 51 -32 71 -7 71
25 1 -4 16 -47 24 l-34 6 6 -67z"/>
<path d="M10424 2557 c24 -21 26 -27 17 -45 -10 -19 -8 -22 16 -27 88 -18 170
-92 159 -145 -4 -23 1 -28 53 -48 70 -27 86 -27 118 -2 38 30 61 25 114 -25
61 -57 78 -57 45 -1 -14 25 -26 51 -26 60 0 35 -57 80 -174 138 -126 62 -138
64 -205 37 -31 -13 -34 -13 -50 9 -35 50 -47 61 -71 67 -25 6 -25 6 4 -18z"/>
<path d="M11013 2427 c-36 -24 -43 -47 -15 -47 20 0 62 39 62 58 0 17 -10 14
-47 -11z"/>
<path d="M9535 2359 c-4 -5 -5 -12 -3 -14 1 -2 50 -15 108 -30 58 -14 114 -29
125 -32 18 -5 18 -4 6 11 -24 28 -62 43 -140 55 -41 6 -77 14 -82 16 -4 3 -11
0 -14 -6z"/>
<path d="M10170 2261 c-27 -23 -41 -42 -36 -49 7 -11 39 8 99 58 4 4 2 12 -6
18 -10 9 -23 2 -57 -27z"/>
<path d="M10380 2120 c-16 -17 -33 -52 -40 -80 -7 -27 -15 -50 -19 -50 -5 0
-34 9 -65 20 -69 23 -88 17 -114 -38 -9 -20 -26 -41 -38 -46 -12 -5 -30 -28
-40 -50 -17 -37 -32 -48 -142 -106 -68 -36 -128 -73 -134 -83 -7 -13 -5 -32 6
-64 20 -58 20 -83 1 -83 -19 0 -19 2 8 -61 29 -66 43 -123 52 -212 8 -71 23
-97 56 -97 11 0 84 29 162 64 79 35 161 69 182 75 90 25 153 6 226 -65 l46
-45 28 40 c32 47 45 45 45 -9 0 -23 5 -40 14 -43 8 -3 30 -39 50 -80 19 -41
43 -77 52 -81 10 -4 37 -4 61 0 25 4 55 2 71 -5 24 -10 34 -8 74 14 25 14 50
31 55 38 25 32 123 402 123 462 0 45 -29 100 -58 109 -11 4 -57 63 -103 133
-72 108 -90 144 -125 251 -47 141 -47 141 -83 9 -23 -83 -56 -157 -70 -157
-19 0 -117 82 -132 110 -13 24 -15 40 -7 82 12 63 -2 78 -70 78 -36 0 -49 -5
-72 -30z"/>
<path d="M7588 2018 c-78 -76 -108 -133 -108 -203 0 -18 -5 -47 -11 -65 -14
-38 3 -131 26 -150 22 -19 63 -3 80 30 33 64 108 441 91 458 -2 1 -37 -30 -78
-70z"/>
<path d="M11806 1023 c-16 -46 -16 -47 10 -81 l27 -34 33 53 c19 29 34 57 34
61 0 7 -72 48 -84 48 -2 0 -11 -21 -20 -47z"/>
<path d="M10835 890 c-7 -11 40 -80 55 -80 12 0 50 50 50 66 0 9 -12 14 -34
14 -19 0 -41 3 -49 6 -8 3 -18 0 -22 -6z"/>
<path d="M11712 851 c-15 -15 -55 -64 -89 -109 l-62 -80 31 -11 c66 -23 70
-20 126 97 29 59 52 113 52 120 0 21 -31 13 -58 -17z"/>
<path d="M3676 288 l-26 -43 23 -6 c62 -16 96 -17 101 -3 6 15 -49 94 -65 94
-4 0 -19 -19 -33 -42z"/>
</g>
</svg>

