<!DOCTYPE svg PUBLIC "-//W3C//DTD SVG 1.1//EN" "http://www.w3.org/Graphics/SVG/1.1/DTD/svg11.dtd">
<!-- Uploaded to: SVG Repo, www.svgrepo.com, Transformed by: SVG Repo Mixer Tools -->
<svg width="256px" height="256px" viewBox="0 0 24 24" xmlns="http://www.w3.org/2000/svg" id="up" class="icon glyph" fill="#000000">
<g id="SVGRepo_bgCarrier" stroke-width="0"/>
<g id="SVGRepo_tracerCarrier" stroke-linecap="round" stroke-linejoin="round"/>
<g id="SVGRepo_iconCarrier">
<path d="M19.71,9.29l-7-7h0a1.15,1.15,0,0,0-.33-.21.94.94,0,0,0-.76,0,1.15,1.15,0,0,0-.33.21h0l-7,7a1,1,0,0,0,1.42,1.42L11,5.41V21a1,1,0,0,0,2,0V5.41l5.29,5.3a1,1,0,0,0,1.42,0A1,1,0,0,0,19.71,9.29Z" style="fill:#231f20"/>
</g>
</svg>